<?xml version="1.0" encoding="utf-8" standalone="no"?>
<!DOCTYPE svg PUBLIC "-//W3C//DTD SVG 1.1//EN"
  "http://www.w3.org/Graphics/SVG/1.1/DTD/svg11.dtd">
<svg xmlns:xlink="http://www.w3.org/1999/xlink" width="503.74375pt" height="483.273125pt" viewBox="0 0 503.74375 483.273125" xmlns="http://www.w3.org/2000/svg" version="1.1">
 <metadata>
  <rdf:RDF xmlns:dc="http://purl.org/dc/elements/1.1/" xmlns:cc="http://creativecommons.org/ns#" xmlns:rdf="http://www.w3.org/1999/02/22-rdf-syntax-ns#">
   <cc:Work>
    <dc:type rdf:resource="http://purl.org/dc/dcmitype/StillImage"/>
    <dc:date>2026-02-02T19:23:42.892919</dc:date>
    <dc:format>image/svg+xml</dc:format>
    <dc:creator>
     <cc:Agent>
      <dc:title>Matplotlib v3.10.3, https://matplotlib.org/</dc:title>
     </cc:Agent>
    </dc:creator>
   </cc:Work>
  </rdf:RDF>
 </metadata>
 <defs>
  <style type="text/css">*{stroke-linejoin: round; stroke-linecap: butt}</style>
 </defs>
 <g id="figure_1">
  <g id="patch_1">
   <path d="M 0 483.273125 
L 503.74375 483.273125 
L 503.74375 0 
L 0 0 
z
" style="fill: #ffffff"/>
  </g>
  <g id="axes_1">
   <g id="patch_2">
    <path d="M 43.78125 281.518125 
L 490.18125 281.518125 
L 490.18125 22.318125 
L 43.78125 22.318125 
z
" style="fill: #ffffff"/>
   </g>
   <g id="matplotlib.axis_1">
    <g id="xtick_1">
     <g id="line2d_1">
      <path d="M 43.78125 281.518125 
L 43.78125 22.318125 
" clip-path="url(#pc8de3bff97)" style="fill: none; stroke: #b0b0b0; stroke-opacity: 0.3; stroke-width: 0.8; stroke-linecap: square"/>
     </g>
     <g id="line2d_2">
      <defs>
       <path id="mb91027d367" d="M 0 0 
L 0 3.5 
" style="stroke: #000000; stroke-width: 0.8"/>
      </defs>
      <g>
       <use xlink:href="#mb91027d367" x="43.78125" y="281.518125" style="stroke: #000000; stroke-width: 0.8"/>
      </g>
     </g>
     <g id="text_1">
      <!-- 6 -->
      <g transform="translate(40.6 296.116562) scale(0.1 -0.1)">
       <defs>
        <path id="DejaVuSans-36" d="M 2113 2584 
Q 1688 2584 1439 2293 
Q 1191 2003 1191 1497 
Q 1191 994 1439 701 
Q 1688 409 2113 409 
Q 2538 409 2786 701 
Q 3034 994 3034 1497 
Q 3034 2003 2786 2293 
Q 2538 2584 2113 2584 
z
M 3366 4563 
L 3366 3988 
Q 3128 4100 2886 4159 
Q 2644 4219 2406 4219 
Q 1781 4219 1451 3797 
Q 1122 3375 1075 2522 
Q 1259 2794 1537 2939 
Q 1816 3084 2150 3084 
Q 2853 3084 3261 2657 
Q 3669 2231 3669 1497 
Q 3669 778 3244 343 
Q 2819 -91 2113 -91 
Q 1303 -91 875 529 
Q 447 1150 447 2328 
Q 447 3434 972 4092 
Q 1497 4750 2381 4750 
Q 2619 4750 2861 4703 
Q 3103 4656 3366 4563 
z
" transform="scale(0.015625)"/>
       </defs>
       <use xlink:href="#DejaVuSans-36"/>
      </g>
     </g>
    </g>
    <g id="xtick_2">
     <g id="line2d_3">
      <path d="M 107.552679 281.518125 
L 107.552679 22.318125 
" clip-path="url(#pc8de3bff97)" style="fill: none; stroke: #b0b0b0; stroke-opacity: 0.3; stroke-width: 0.8; stroke-linecap: square"/>
     </g>
     <g id="line2d_4">
      <g>
       <use xlink:href="#mb91027d367" x="107.552679" y="281.518125" style="stroke: #000000; stroke-width: 0.8"/>
      </g>
     </g>
     <g id="text_2">
      <!-- 8 -->
      <g transform="translate(104.371429 296.116562) scale(0.1 -0.1)">
       <defs>
        <path id="DejaVuSans-38" d="M 2034 2216 
Q 1584 2216 1326 1975 
Q 1069 1734 1069 1313 
Q 1069 891 1326 650 
Q 1584 409 2034 409 
Q 2484 409 2743 651 
Q 3003 894 3003 1313 
Q 3003 1734 2745 1975 
Q 2488 2216 2034 2216 
z
M 1403 2484 
Q 997 2584 770 2862 
Q 544 3141 544 3541 
Q 544 4100 942 4425 
Q 1341 4750 2034 4750 
Q 2731 4750 3128 4425 
Q 3525 4100 3525 3541 
Q 3525 3141 3298 2862 
Q 3072 2584 2669 2484 
Q 3125 2378 3379 2068 
Q 3634 1759 3634 1313 
Q 3634 634 3220 271 
Q 2806 -91 2034 -91 
Q 1263 -91 848 271 
Q 434 634 434 1313 
Q 434 1759 690 2068 
Q 947 2378 1403 2484 
z
M 1172 3481 
Q 1172 3119 1398 2916 
Q 1625 2713 2034 2713 
Q 2441 2713 2670 2916 
Q 2900 3119 2900 3481 
Q 2900 3844 2670 4047 
Q 2441 4250 2034 4250 
Q 1625 4250 1398 4047 
Q 1172 3844 1172 3481 
z
" transform="scale(0.015625)"/>
       </defs>
       <use xlink:href="#DejaVuSans-38"/>
      </g>
     </g>
    </g>
    <g id="xtick_3">
     <g id="line2d_5">
      <path d="M 171.324107 281.518125 
L 171.324107 22.318125 
" clip-path="url(#pc8de3bff97)" style="fill: none; stroke: #b0b0b0; stroke-opacity: 0.3; stroke-width: 0.8; stroke-linecap: square"/>
     </g>
     <g id="line2d_6">
      <g>
       <use xlink:href="#mb91027d367" x="171.324107" y="281.518125" style="stroke: #000000; stroke-width: 0.8"/>
      </g>
     </g>
     <g id="text_3">
      <!-- 10 -->
      <g transform="translate(164.961607 296.116562) scale(0.1 -0.1)">
       <defs>
        <path id="DejaVuSans-31" d="M 794 531 
L 1825 531 
L 1825 4091 
L 703 3866 
L 703 4441 
L 1819 4666 
L 2450 4666 
L 2450 531 
L 3481 531 
L 3481 0 
L 794 0 
L 794 531 
z
" transform="scale(0.015625)"/>
        <path id="DejaVuSans-30" d="M 2034 4250 
Q 1547 4250 1301 3770 
Q 1056 3291 1056 2328 
Q 1056 1369 1301 889 
Q 1547 409 2034 409 
Q 2525 409 2770 889 
Q 3016 1369 3016 2328 
Q 3016 3291 2770 3770 
Q 2525 4250 2034 4250 
z
M 2034 4750 
Q 2819 4750 3233 4129 
Q 3647 3509 3647 2328 
Q 3647 1150 3233 529 
Q 2819 -91 2034 -91 
Q 1250 -91 836 529 
Q 422 1150 422 2328 
Q 422 3509 836 4129 
Q 1250 4750 2034 4750 
z
" transform="scale(0.015625)"/>
       </defs>
       <use xlink:href="#DejaVuSans-31"/>
       <use xlink:href="#DejaVuSans-30" transform="translate(63.623047 0)"/>
      </g>
     </g>
    </g>
    <g id="xtick_4">
     <g id="line2d_7">
      <path d="M 235.095536 281.518125 
L 235.095536 22.318125 
" clip-path="url(#pc8de3bff97)" style="fill: none; stroke: #b0b0b0; stroke-opacity: 0.3; stroke-width: 0.8; stroke-linecap: square"/>
     </g>
     <g id="line2d_8">
      <g>
       <use xlink:href="#mb91027d367" x="235.095536" y="281.518125" style="stroke: #000000; stroke-width: 0.8"/>
      </g>
     </g>
     <g id="text_4">
      <!-- 12 -->
      <g transform="translate(228.733036 296.116562) scale(0.1 -0.1)">
       <defs>
        <path id="DejaVuSans-32" d="M 1228 531 
L 3431 531 
L 3431 0 
L 469 0 
L 469 531 
Q 828 903 1448 1529 
Q 2069 2156 2228 2338 
Q 2531 2678 2651 2914 
Q 2772 3150 2772 3378 
Q 2772 3750 2511 3984 
Q 2250 4219 1831 4219 
Q 1534 4219 1204 4116 
Q 875 4013 500 3803 
L 500 4441 
Q 881 4594 1212 4672 
Q 1544 4750 1819 4750 
Q 2544 4750 2975 4387 
Q 3406 4025 3406 3419 
Q 3406 3131 3298 2873 
Q 3191 2616 2906 2266 
Q 2828 2175 2409 1742 
Q 1991 1309 1228 531 
z
" transform="scale(0.015625)"/>
       </defs>
       <use xlink:href="#DejaVuSans-31"/>
       <use xlink:href="#DejaVuSans-32" transform="translate(63.623047 0)"/>
      </g>
     </g>
    </g>
    <g id="xtick_5">
     <g id="line2d_9">
      <path d="M 298.866964 281.518125 
L 298.866964 22.318125 
" clip-path="url(#pc8de3bff97)" style="fill: none; stroke: #b0b0b0; stroke-opacity: 0.3; stroke-width: 0.8; stroke-linecap: square"/>
     </g>
     <g id="line2d_10">
      <g>
       <use xlink:href="#mb91027d367" x="298.866964" y="281.518125" style="stroke: #000000; stroke-width: 0.8"/>
      </g>
     </g>
     <g id="text_5">
      <!-- 14 -->
      <g transform="translate(292.504464 296.116562) scale(0.1 -0.1)">
       <defs>
        <path id="DejaVuSans-34" d="M 2419 4116 
L 825 1625 
L 2419 1625 
L 2419 4116 
z
M 2253 4666 
L 3047 4666 
L 3047 1625 
L 3713 1625 
L 3713 1100 
L 3047 1100 
L 3047 0 
L 2419 0 
L 2419 1100 
L 313 1100 
L 313 1709 
L 2253 4666 
z
" transform="scale(0.015625)"/>
       </defs>
       <use xlink:href="#DejaVuSans-31"/>
       <use xlink:href="#DejaVuSans-34" transform="translate(63.623047 0)"/>
      </g>
     </g>
    </g>
    <g id="xtick_6">
     <g id="line2d_11">
      <path d="M 362.638393 281.518125 
L 362.638393 22.318125 
" clip-path="url(#pc8de3bff97)" style="fill: none; stroke: #b0b0b0; stroke-opacity: 0.3; stroke-width: 0.8; stroke-linecap: square"/>
     </g>
     <g id="line2d_12">
      <g>
       <use xlink:href="#mb91027d367" x="362.638393" y="281.518125" style="stroke: #000000; stroke-width: 0.8"/>
      </g>
     </g>
     <g id="text_6">
      <!-- 16 -->
      <g transform="translate(356.275893 296.116562) scale(0.1 -0.1)">
       <use xlink:href="#DejaVuSans-31"/>
       <use xlink:href="#DejaVuSans-36" transform="translate(63.623047 0)"/>
      </g>
     </g>
    </g>
    <g id="xtick_7">
     <g id="line2d_13">
      <path d="M 426.409821 281.518125 
L 426.409821 22.318125 
" clip-path="url(#pc8de3bff97)" style="fill: none; stroke: #b0b0b0; stroke-opacity: 0.3; stroke-width: 0.8; stroke-linecap: square"/>
     </g>
     <g id="line2d_14">
      <g>
       <use xlink:href="#mb91027d367" x="426.409821" y="281.518125" style="stroke: #000000; stroke-width: 0.8"/>
      </g>
     </g>
     <g id="text_7">
      <!-- 18 -->
      <g transform="translate(420.047321 296.116562) scale(0.1 -0.1)">
       <use xlink:href="#DejaVuSans-31"/>
       <use xlink:href="#DejaVuSans-38" transform="translate(63.623047 0)"/>
      </g>
     </g>
    </g>
    <g id="xtick_8">
     <g id="line2d_15">
      <path d="M 490.18125 281.518125 
L 490.18125 22.318125 
" clip-path="url(#pc8de3bff97)" style="fill: none; stroke: #b0b0b0; stroke-opacity: 0.3; stroke-width: 0.8; stroke-linecap: square"/>
     </g>
     <g id="line2d_16">
      <g>
       <use xlink:href="#mb91027d367" x="490.18125" y="281.518125" style="stroke: #000000; stroke-width: 0.8"/>
      </g>
     </g>
     <g id="text_8">
      <!-- 20 -->
      <g transform="translate(483.81875 296.116562) scale(0.1 -0.1)">
       <use xlink:href="#DejaVuSans-32"/>
       <use xlink:href="#DejaVuSans-30" transform="translate(63.623047 0)"/>
      </g>
     </g>
    </g>
    <g id="text_9">
     <!-- Radius (km) -->
     <g transform="translate(236.9625 309.794688) scale(0.1 -0.1)">
      <defs>
       <path id="DejaVuSans-52" d="M 2841 2188 
Q 3044 2119 3236 1894 
Q 3428 1669 3622 1275 
L 4263 0 
L 3584 0 
L 2988 1197 
Q 2756 1666 2539 1819 
Q 2322 1972 1947 1972 
L 1259 1972 
L 1259 0 
L 628 0 
L 628 4666 
L 2053 4666 
Q 2853 4666 3247 4331 
Q 3641 3997 3641 3322 
Q 3641 2881 3436 2590 
Q 3231 2300 2841 2188 
z
M 1259 4147 
L 1259 2491 
L 2053 2491 
Q 2509 2491 2742 2702 
Q 2975 2913 2975 3322 
Q 2975 3731 2742 3939 
Q 2509 4147 2053 4147 
L 1259 4147 
z
" transform="scale(0.015625)"/>
       <path id="DejaVuSans-61" d="M 2194 1759 
Q 1497 1759 1228 1600 
Q 959 1441 959 1056 
Q 959 750 1161 570 
Q 1363 391 1709 391 
Q 2188 391 2477 730 
Q 2766 1069 2766 1631 
L 2766 1759 
L 2194 1759 
z
M 3341 1997 
L 3341 0 
L 2766 0 
L 2766 531 
Q 2569 213 2275 61 
Q 1981 -91 1556 -91 
Q 1019 -91 701 211 
Q 384 513 384 1019 
Q 384 1609 779 1909 
Q 1175 2209 1959 2209 
L 2766 2209 
L 2766 2266 
Q 2766 2663 2505 2880 
Q 2244 3097 1772 3097 
Q 1472 3097 1187 3025 
Q 903 2953 641 2809 
L 641 3341 
Q 956 3463 1253 3523 
Q 1550 3584 1831 3584 
Q 2591 3584 2966 3190 
Q 3341 2797 3341 1997 
z
" transform="scale(0.015625)"/>
       <path id="DejaVuSans-64" d="M 2906 2969 
L 2906 4863 
L 3481 4863 
L 3481 0 
L 2906 0 
L 2906 525 
Q 2725 213 2448 61 
Q 2172 -91 1784 -91 
Q 1150 -91 751 415 
Q 353 922 353 1747 
Q 353 2572 751 3078 
Q 1150 3584 1784 3584 
Q 2172 3584 2448 3432 
Q 2725 3281 2906 2969 
z
M 947 1747 
Q 947 1113 1208 752 
Q 1469 391 1925 391 
Q 2381 391 2643 752 
Q 2906 1113 2906 1747 
Q 2906 2381 2643 2742 
Q 2381 3103 1925 3103 
Q 1469 3103 1208 2742 
Q 947 2381 947 1747 
z
" transform="scale(0.015625)"/>
       <path id="DejaVuSans-69" d="M 603 3500 
L 1178 3500 
L 1178 0 
L 603 0 
L 603 3500 
z
M 603 4863 
L 1178 4863 
L 1178 4134 
L 603 4134 
L 603 4863 
z
" transform="scale(0.015625)"/>
       <path id="DejaVuSans-75" d="M 544 1381 
L 544 3500 
L 1119 3500 
L 1119 1403 
Q 1119 906 1312 657 
Q 1506 409 1894 409 
Q 2359 409 2629 706 
Q 2900 1003 2900 1516 
L 2900 3500 
L 3475 3500 
L 3475 0 
L 2900 0 
L 2900 538 
Q 2691 219 2414 64 
Q 2138 -91 1772 -91 
Q 1169 -91 856 284 
Q 544 659 544 1381 
z
M 1991 3584 
L 1991 3584 
z
" transform="scale(0.015625)"/>
       <path id="DejaVuSans-73" d="M 2834 3397 
L 2834 2853 
Q 2591 2978 2328 3040 
Q 2066 3103 1784 3103 
Q 1356 3103 1142 2972 
Q 928 2841 928 2578 
Q 928 2378 1081 2264 
Q 1234 2150 1697 2047 
L 1894 2003 
Q 2506 1872 2764 1633 
Q 3022 1394 3022 966 
Q 3022 478 2636 193 
Q 2250 -91 1575 -91 
Q 1294 -91 989 -36 
Q 684 19 347 128 
L 347 722 
Q 666 556 975 473 
Q 1284 391 1588 391 
Q 1994 391 2212 530 
Q 2431 669 2431 922 
Q 2431 1156 2273 1281 
Q 2116 1406 1581 1522 
L 1381 1569 
Q 847 1681 609 1914 
Q 372 2147 372 2553 
Q 372 3047 722 3315 
Q 1072 3584 1716 3584 
Q 2034 3584 2315 3537 
Q 2597 3491 2834 3397 
z
" transform="scale(0.015625)"/>
       <path id="DejaVuSans-20" transform="scale(0.015625)"/>
       <path id="DejaVuSans-28" d="M 1984 4856 
Q 1566 4138 1362 3434 
Q 1159 2731 1159 2009 
Q 1159 1288 1364 580 
Q 1569 -128 1984 -844 
L 1484 -844 
Q 1016 -109 783 600 
Q 550 1309 550 2009 
Q 550 2706 781 3412 
Q 1013 4119 1484 4856 
L 1984 4856 
z
" transform="scale(0.015625)"/>
       <path id="DejaVuSans-6b" d="M 581 4863 
L 1159 4863 
L 1159 1991 
L 2875 3500 
L 3609 3500 
L 1753 1863 
L 3688 0 
L 2938 0 
L 1159 1709 
L 1159 0 
L 581 0 
L 581 4863 
z
" transform="scale(0.015625)"/>
       <path id="DejaVuSans-6d" d="M 3328 2828 
Q 3544 3216 3844 3400 
Q 4144 3584 4550 3584 
Q 5097 3584 5394 3201 
Q 5691 2819 5691 2113 
L 5691 0 
L 5113 0 
L 5113 2094 
Q 5113 2597 4934 2840 
Q 4756 3084 4391 3084 
Q 3944 3084 3684 2787 
Q 3425 2491 3425 1978 
L 3425 0 
L 2847 0 
L 2847 2094 
Q 2847 2600 2669 2842 
Q 2491 3084 2119 3084 
Q 1678 3084 1418 2786 
Q 1159 2488 1159 1978 
L 1159 0 
L 581 0 
L 581 3500 
L 1159 3500 
L 1159 2956 
Q 1356 3278 1631 3431 
Q 1906 3584 2284 3584 
Q 2666 3584 2933 3390 
Q 3200 3197 3328 2828 
z
" transform="scale(0.015625)"/>
       <path id="DejaVuSans-29" d="M 513 4856 
L 1013 4856 
Q 1481 4119 1714 3412 
Q 1947 2706 1947 2009 
Q 1947 1309 1714 600 
Q 1481 -109 1013 -844 
L 513 -844 
Q 928 -128 1133 580 
Q 1338 1288 1338 2009 
Q 1338 2731 1133 3434 
Q 928 4138 513 4856 
z
" transform="scale(0.015625)"/>
      </defs>
      <use xlink:href="#DejaVuSans-52"/>
      <use xlink:href="#DejaVuSans-61" transform="translate(67.232422 0)"/>
      <use xlink:href="#DejaVuSans-64" transform="translate(128.511719 0)"/>
      <use xlink:href="#DejaVuSans-69" transform="translate(191.988281 0)"/>
      <use xlink:href="#DejaVuSans-75" transform="translate(219.771484 0)"/>
      <use xlink:href="#DejaVuSans-73" transform="translate(283.150391 0)"/>
      <use xlink:href="#DejaVuSans-20" transform="translate(335.25 0)"/>
      <use xlink:href="#DejaVuSans-28" transform="translate(367.037109 0)"/>
      <use xlink:href="#DejaVuSans-6b" transform="translate(406.050781 0)"/>
      <use xlink:href="#DejaVuSans-6d" transform="translate(463.960938 0)"/>
      <use xlink:href="#DejaVuSans-29" transform="translate(561.373047 0)"/>
     </g>
    </g>
   </g>
   <g id="matplotlib.axis_2">
    <g id="ytick_1">
     <g id="line2d_17">
      <path d="M 43.78125 281.518125 
L 490.18125 281.518125 
" clip-path="url(#pc8de3bff97)" style="fill: none; stroke: #b0b0b0; stroke-opacity: 0.3; stroke-width: 0.8; stroke-linecap: square"/>
     </g>
     <g id="line2d_18">
      <defs>
       <path id="m68b35deba5" d="M 0 0 
L -3.5 0 
" style="stroke: #000000; stroke-width: 0.8"/>
      </defs>
      <g>
       <use xlink:href="#m68b35deba5" x="43.78125" y="281.518125" style="stroke: #000000; stroke-width: 0.8"/>
      </g>
     </g>
     <g id="text_10">
      <!-- 0.0 -->
      <g transform="translate(20.878125 285.317344) scale(0.1 -0.1)">
       <defs>
        <path id="DejaVuSans-2e" d="M 684 794 
L 1344 794 
L 1344 0 
L 684 0 
L 684 794 
z
" transform="scale(0.015625)"/>
       </defs>
       <use xlink:href="#DejaVuSans-30"/>
       <use xlink:href="#DejaVuSans-2e" transform="translate(63.623047 0)"/>
       <use xlink:href="#DejaVuSans-30" transform="translate(95.410156 0)"/>
      </g>
     </g>
    </g>
    <g id="ytick_2">
     <g id="line2d_19">
      <path d="M 43.78125 244.489554 
L 490.18125 244.489554 
" clip-path="url(#pc8de3bff97)" style="fill: none; stroke: #b0b0b0; stroke-opacity: 0.3; stroke-width: 0.8; stroke-linecap: square"/>
     </g>
     <g id="line2d_20">
      <g>
       <use xlink:href="#m68b35deba5" x="43.78125" y="244.489554" style="stroke: #000000; stroke-width: 0.8"/>
      </g>
     </g>
     <g id="text_11">
      <!-- 0.5 -->
      <g transform="translate(20.878125 248.288772) scale(0.1 -0.1)">
       <defs>
        <path id="DejaVuSans-35" d="M 691 4666 
L 3169 4666 
L 3169 4134 
L 1269 4134 
L 1269 2991 
Q 1406 3038 1543 3061 
Q 1681 3084 1819 3084 
Q 2600 3084 3056 2656 
Q 3513 2228 3513 1497 
Q 3513 744 3044 326 
Q 2575 -91 1722 -91 
Q 1428 -91 1123 -41 
Q 819 9 494 109 
L 494 744 
Q 775 591 1075 516 
Q 1375 441 1709 441 
Q 2250 441 2565 725 
Q 2881 1009 2881 1497 
Q 2881 1984 2565 2268 
Q 2250 2553 1709 2553 
Q 1456 2553 1204 2497 
Q 953 2441 691 2322 
L 691 4666 
z
" transform="scale(0.015625)"/>
       </defs>
       <use xlink:href="#DejaVuSans-30"/>
       <use xlink:href="#DejaVuSans-2e" transform="translate(63.623047 0)"/>
       <use xlink:href="#DejaVuSans-35" transform="translate(95.410156 0)"/>
      </g>
     </g>
    </g>
    <g id="ytick_3">
     <g id="line2d_21">
      <path d="M 43.78125 207.460982 
L 490.18125 207.460982 
" clip-path="url(#pc8de3bff97)" style="fill: none; stroke: #b0b0b0; stroke-opacity: 0.3; stroke-width: 0.8; stroke-linecap: square"/>
     </g>
     <g id="line2d_22">
      <g>
       <use xlink:href="#m68b35deba5" x="43.78125" y="207.460982" style="stroke: #000000; stroke-width: 0.8"/>
      </g>
     </g>
     <g id="text_12">
      <!-- 1.0 -->
      <g transform="translate(20.878125 211.260201) scale(0.1 -0.1)">
       <use xlink:href="#DejaVuSans-31"/>
       <use xlink:href="#DejaVuSans-2e" transform="translate(63.623047 0)"/>
       <use xlink:href="#DejaVuSans-30" transform="translate(95.410156 0)"/>
      </g>
     </g>
    </g>
    <g id="ytick_4">
     <g id="line2d_23">
      <path d="M 43.78125 170.432411 
L 490.18125 170.432411 
" clip-path="url(#pc8de3bff97)" style="fill: none; stroke: #b0b0b0; stroke-opacity: 0.3; stroke-width: 0.8; stroke-linecap: square"/>
     </g>
     <g id="line2d_24">
      <g>
       <use xlink:href="#m68b35deba5" x="43.78125" y="170.432411" style="stroke: #000000; stroke-width: 0.8"/>
      </g>
     </g>
     <g id="text_13">
      <!-- 1.5 -->
      <g transform="translate(20.878125 174.231629) scale(0.1 -0.1)">
       <use xlink:href="#DejaVuSans-31"/>
       <use xlink:href="#DejaVuSans-2e" transform="translate(63.623047 0)"/>
       <use xlink:href="#DejaVuSans-35" transform="translate(95.410156 0)"/>
      </g>
     </g>
    </g>
    <g id="ytick_5">
     <g id="line2d_25">
      <path d="M 43.78125 133.403839 
L 490.18125 133.403839 
" clip-path="url(#pc8de3bff97)" style="fill: none; stroke: #b0b0b0; stroke-opacity: 0.3; stroke-width: 0.8; stroke-linecap: square"/>
     </g>
     <g id="line2d_26">
      <g>
       <use xlink:href="#m68b35deba5" x="43.78125" y="133.403839" style="stroke: #000000; stroke-width: 0.8"/>
      </g>
     </g>
     <g id="text_14">
      <!-- 2.0 -->
      <g transform="translate(20.878125 137.203058) scale(0.1 -0.1)">
       <use xlink:href="#DejaVuSans-32"/>
       <use xlink:href="#DejaVuSans-2e" transform="translate(63.623047 0)"/>
       <use xlink:href="#DejaVuSans-30" transform="translate(95.410156 0)"/>
      </g>
     </g>
    </g>
    <g id="ytick_6">
     <g id="line2d_27">
      <path d="M 43.78125 96.375268 
L 490.18125 96.375268 
" clip-path="url(#pc8de3bff97)" style="fill: none; stroke: #b0b0b0; stroke-opacity: 0.3; stroke-width: 0.8; stroke-linecap: square"/>
     </g>
     <g id="line2d_28">
      <g>
       <use xlink:href="#m68b35deba5" x="43.78125" y="96.375268" style="stroke: #000000; stroke-width: 0.8"/>
      </g>
     </g>
     <g id="text_15">
      <!-- 2.5 -->
      <g transform="translate(20.878125 100.174487) scale(0.1 -0.1)">
       <use xlink:href="#DejaVuSans-32"/>
       <use xlink:href="#DejaVuSans-2e" transform="translate(63.623047 0)"/>
       <use xlink:href="#DejaVuSans-35" transform="translate(95.410156 0)"/>
      </g>
     </g>
    </g>
    <g id="ytick_7">
     <g id="line2d_29">
      <path d="M 43.78125 59.346696 
L 490.18125 59.346696 
" clip-path="url(#pc8de3bff97)" style="fill: none; stroke: #b0b0b0; stroke-opacity: 0.3; stroke-width: 0.8; stroke-linecap: square"/>
     </g>
     <g id="line2d_30">
      <g>
       <use xlink:href="#m68b35deba5" x="43.78125" y="59.346696" style="stroke: #000000; stroke-width: 0.8"/>
      </g>
     </g>
     <g id="text_16">
      <!-- 3.0 -->
      <g transform="translate(20.878125 63.145915) scale(0.1 -0.1)">
       <defs>
        <path id="DejaVuSans-33" d="M 2597 2516 
Q 3050 2419 3304 2112 
Q 3559 1806 3559 1356 
Q 3559 666 3084 287 
Q 2609 -91 1734 -91 
Q 1441 -91 1130 -33 
Q 819 25 488 141 
L 488 750 
Q 750 597 1062 519 
Q 1375 441 1716 441 
Q 2309 441 2620 675 
Q 2931 909 2931 1356 
Q 2931 1769 2642 2001 
Q 2353 2234 1838 2234 
L 1294 2234 
L 1294 2753 
L 1863 2753 
Q 2328 2753 2575 2939 
Q 2822 3125 2822 3475 
Q 2822 3834 2567 4026 
Q 2313 4219 1838 4219 
Q 1578 4219 1281 4162 
Q 984 4106 628 3988 
L 628 4550 
Q 988 4650 1302 4700 
Q 1616 4750 1894 4750 
Q 2613 4750 3031 4423 
Q 3450 4097 3450 3541 
Q 3450 3153 3228 2886 
Q 3006 2619 2597 2516 
z
" transform="scale(0.015625)"/>
       </defs>
       <use xlink:href="#DejaVuSans-33"/>
       <use xlink:href="#DejaVuSans-2e" transform="translate(63.623047 0)"/>
       <use xlink:href="#DejaVuSans-30" transform="translate(95.410156 0)"/>
      </g>
     </g>
    </g>
    <g id="ytick_8">
     <g id="line2d_31">
      <path d="M 43.78125 22.318125 
L 490.18125 22.318125 
" clip-path="url(#pc8de3bff97)" style="fill: none; stroke: #b0b0b0; stroke-opacity: 0.3; stroke-width: 0.8; stroke-linecap: square"/>
     </g>
     <g id="line2d_32">
      <g>
       <use xlink:href="#m68b35deba5" x="43.78125" y="22.318125" style="stroke: #000000; stroke-width: 0.8"/>
      </g>
     </g>
     <g id="text_17">
      <!-- 3.5 -->
      <g transform="translate(20.878125 26.117344) scale(0.1 -0.1)">
       <use xlink:href="#DejaVuSans-33"/>
       <use xlink:href="#DejaVuSans-2e" transform="translate(63.623047 0)"/>
       <use xlink:href="#DejaVuSans-35" transform="translate(95.410156 0)"/>
      </g>
     </g>
    </g>
    <g id="text_18">
     <!-- Mass ($M_\odot$) -->
     <g transform="translate(14.798438 178.768125) rotate(-90) scale(0.1 -0.1)">
      <defs>
       <path id="DejaVuSans-4d" d="M 628 4666 
L 1569 4666 
L 2759 1491 
L 3956 4666 
L 4897 4666 
L 4897 0 
L 4281 0 
L 4281 4097 
L 3078 897 
L 2444 897 
L 1241 4097 
L 1241 0 
L 628 0 
L 628 4666 
z
" transform="scale(0.015625)"/>
       <path id="DejaVuSans-Oblique-4d" d="M 1081 4666 
L 2028 4666 
L 2572 1522 
L 4378 4666 
L 5350 4666 
L 4441 0 
L 3828 0 
L 4622 4091 
L 2791 897 
L 2175 897 
L 1581 4103 
L 788 0 
L 172 0 
L 1081 4666 
z
" transform="scale(0.015625)"/>
       <path id="DejaVuSans-2299" d="M 2350 2403 
L 3013 2403 
L 3013 1609 
L 2350 1609 
L 2350 2403 
z
M 3306 3522 
Q 3016 3644 2681 3644 
Q 2347 3644 2056 3522 
Q 1769 3400 1531 3163 
Q 1291 2922 1172 2634 
Q 1053 2347 1053 2006 
Q 1053 1675 1172 1387 
Q 1291 1100 1531 859 
Q 1769 622 2056 500 
Q 2347 378 2681 378 
Q 3016 378 3306 500 
Q 3594 622 3831 859 
Q 4072 1100 4190 1387 
Q 4309 1675 4309 2006 
Q 4309 2347 4190 2634 
Q 4072 2922 3831 3163 
Q 3594 3400 3306 3522 
z
M 1878 3956 
Q 2250 4113 2681 4113 
Q 3113 4113 3484 3956 
Q 3856 3800 4163 3494 
Q 4472 3184 4625 2813 
Q 4778 2444 4778 2006 
Q 4778 1578 4625 1206 
Q 4472 838 4163 528 
Q 3856 222 3484 65 
Q 3113 -91 2681 -91 
Q 2250 -91 1878 65 
Q 1506 222 1200 528 
Q 891 838 738 1206 
Q 584 1578 584 2006 
Q 584 2444 738 2813 
Q 891 3184 1200 3494 
Q 1506 3800 1878 3956 
z
" transform="scale(0.015625)"/>
      </defs>
      <use xlink:href="#DejaVuSans-4d" transform="translate(0 0.125)"/>
      <use xlink:href="#DejaVuSans-61" transform="translate(86.279297 0.125)"/>
      <use xlink:href="#DejaVuSans-73" transform="translate(147.558594 0.125)"/>
      <use xlink:href="#DejaVuSans-73" transform="translate(199.658203 0.125)"/>
      <use xlink:href="#DejaVuSans-20" transform="translate(251.757812 0.125)"/>
      <use xlink:href="#DejaVuSans-28" transform="translate(283.544922 0.125)"/>
      <use xlink:href="#DejaVuSans-Oblique-4d" transform="translate(322.558594 0.125)"/>
      <use xlink:href="#DejaVuSans-2299" transform="translate(422.475586 -16.28125) scale(0.7)"/>
      <use xlink:href="#DejaVuSans-29" transform="translate(497.5 0.125)"/>
     </g>
    </g>
   </g>
   <g id="line2d_33">
    <path d="M 395.098082 201.274711 
L 391.590653 195.858589 
L 390.12391 193.491493 
L 386.903453 188.28153 
L 380.048025 177.198803 
L 376.859453 172.21086 
L 373.256368 166.803456 
L 371.853396 164.72939 
L 368.02711 159.370506 
L 363.690653 153.629944 
L 359.864368 148.459427 
L 356.038082 142.899673 
L 351.159568 134.961904 
L 348.83191 130.811173 
L 345.452025 124.42008 
L 341.179339 115.715649 
L 326.862653 85.220886 
L 321.410196 75.191034 
L 318.349168 70.257264 
L 316.276596 67.19857 
L 312.545968 62.309579 
L 309.835682 59.187558 
L 306.487682 55.852364 
L 303.649853 53.414053 
L 300.780139 51.280808 
L 297.240825 49.113003 
L 294.881282 47.897638 
L 292.489853 46.85929 
L 290.098425 45.991397 
L 287.069282 45.135459 
L 284.040139 44.520251 
L 281.010996 44.130569 
L 280.405168 44.078329 
L 280.405168 44.078329 
" clip-path="url(#pc8de3bff97)" style="fill: none; stroke: #440154; stroke-opacity: 0.4; stroke-width: 1.5; stroke-linecap: square"/>
   </g>
   <g id="line2d_34">
    <path d="M 395.652205 201.474548 
L 390.053498 195.514625 
L 385.724105 190.60797 
L 381.882406 185.934419 
L 378.47184 181.45622 
L 374.836189 176.307026 
L 369.114935 167.717797 
L 365.395661 161.848911 
L 360.779333 154.320323 
L 356.945905 148.72357 
L 350.183127 138.879142 
L 346.974109 133.825329 
L 343.886299 128.536515 
L 340.989668 123.086559 
L 338.299786 117.543852 
L 335.31275 110.861766 
L 330.721327 99.914445 
L 326.292408 89.536143 
L 323.587473 83.69956 
L 320.792072 78.205039 
L 318.373738 73.907846 
L 315.866641 69.880023 
L 313.270235 66.131562 
L 310.591816 62.672458 
L 307.844674 59.510391 
L 305.047905 56.651982 
L 302.223038 54.100374 
L 299.390326 51.853412 
L 296.563666 49.901652 
L 293.746645 48.228442 
L 290.931935 46.811783 
L 288.105943 45.629179 
L 285.259639 44.664087 
L 282.4078 43.911739 
L 279.614771 43.381317 
L 279.073498 43.303134 
L 279.073498 43.303134 
" clip-path="url(#pc8de3bff97)" style="fill: none; stroke-dasharray: 5.55,2.4; stroke-dashoffset: 0; stroke: #440154; stroke-width: 1.5"/>
   </g>
   <g id="line2d_35">
    <path d="M 294.14791 240.225295 
L 293.47831 238.425763 
L 292.80871 235.609138 
L 292.58551 234.147429 
L 292.394196 229.546246 
L 292.80871 224.050987 
L 294.626196 213.790164 
L 295.518996 209.899743 
L 296.124825 207.231226 
L 301.51351 183.967425 
L 303.362882 174.544411 
L 305.339796 161.640213 
L 306.105053 154.307389 
L 306.64711 146.181405 
L 306.838425 138.950987 
L 306.742768 133.420723 
L 306.42391 128.002089 
L 305.818082 121.980063 
L 304.957168 116.176266 
L 302.725168 106.648641 
L 301.704825 103.465674 
L 299.887339 98.637737 
L 298.069853 94.69562 
L 295.742196 90.529057 
L 294.498653 88.58539 
L 292.521739 85.848001 
L 290.034653 82.927839 
L 288.56791 81.392281 
L 286.240253 79.270616 
L 283.370539 77.069569 
L 280.851568 75.415417 
L 277.758653 73.751876 
L 275.048368 72.548993 
L 271.445282 71.292823 
L 268.065396 70.37387 
L 264.621739 69.624626 
L 261.178082 69.033879 
L 257.001053 68.525671 
L 252.85591 68.228895 
L 248.742653 68.135638 
L 244.023568 68.271998 
L 239.400139 68.656365 
L 235.541968 69.168707 
L 235.541968 69.168707 
" clip-path="url(#pc8de3bff97)" style="fill: none; stroke: #3b528b; stroke-opacity: 0.4; stroke-width: 1.5; stroke-linecap: square"/>
   </g>
   <g id="line2d_36">
    <path d="M 290.928286 241.154134 
L 289.840692 239.359433 
L 289.020481 237.504131 
L 288.447736 235.587127 
L 288.101139 233.607447 
L 287.957823 231.56453 
L 288.029496 228.920274 
L 288.338326 226.174461 
L 288.961945 222.745682 
L 289.953691 218.560657 
L 291.879223 211.58597 
L 296.162698 196.278617 
L 297.991045 188.8329 
L 299.275777 182.652931 
L 300.362823 176.240346 
L 301.364513 168.874304 
L 302.764767 156.627528 
L 303.509352 148.457802 
L 303.877813 141.941131 
L 303.974421 136.313364 
L 303.831501 130.80387 
L 303.510295 126.203266 
L 303.006394 121.730497 
L 302.195914 116.685812 
L 301.160775 111.83754 
L 299.919831 107.192071 
L 298.492422 102.757969 
L 296.895545 98.544805 
L 295.142855 94.56672 
L 293.243839 90.839712 
L 291.206524 87.383433 
L 289.357287 84.653193 
L 287.420169 82.15339 
L 285.39894 79.900001 
L 283.284935 77.905653 
L 281.428887 76.442839 
L 279.447037 75.14884 
L 277.288423 73.997118 
L 274.395897 72.751498 
L 271.136431 71.601047 
L 266.916723 70.354367 
L 262.384688 69.261247 
L 258.368231 68.522513 
L 254.304883 68.021701 
L 250.239955 67.776787 
L 246.203123 67.777457 
L 242.213122 68.00016 
L 238.28342 68.419575 
L 235.063941 68.902748 
L 235.063941 68.902748 
" clip-path="url(#pc8de3bff97)" style="fill: none; stroke-dasharray: 5.55,2.4; stroke-dashoffset: 0; stroke: #3b528b; stroke-width: 1.5"/>
   </g>
   <g id="line2d_37">
    <path d="M 504.74375 119.342548 
L 457.211453 117.519456 
L 418.24711 116.095312 
L 391.399339 115.095722 
L 370.099682 114.074709 
L 349.916025 112.911229 
L 319.59271 110.896819 
L 287.22871 108.785885 
L 274.123682 108.128527 
L 262.23031 107.74601 
L 252.600825 107.649737 
L 243.800368 107.783841 
L 235.701396 108.141252 
L 228.272025 108.709002 
L 222.245625 109.364872 
L 215.166996 110.403826 
L 212.966882 110.794272 
L 212.966882 110.794272 
" clip-path="url(#pc8de3bff97)" style="fill: none; stroke: #21918c; stroke-opacity: 0.4; stroke-width: 1.5; stroke-linecap: square"/>
   </g>
   <g id="line2d_38">
    <path d="M 504.74375 120.673401 
L 443.154735 118.15832 
L 404.29171 116.65087 
L 383.419439 115.60846 
L 362.08745 114.30565 
L 337.990804 112.589835 
L 289.597393 109.069374 
L 273.407132 108.152555 
L 261.521419 107.701693 
L 251.914434 107.554932 
L 243.128207 107.660218 
L 236.045196 107.960133 
L 229.471468 108.447402 
L 223.362352 109.109419 
L 217.681237 109.929215 
L 212.401972 110.886255 
L 212.401972 110.886255 
" clip-path="url(#pc8de3bff97)" style="fill: none; stroke-dasharray: 5.55,2.4; stroke-dashoffset: 0; stroke: #21918c; stroke-width: 1.5"/>
   </g>
   <g id="line2d_39">
    <path d="M 191.92231 268.687872 
L 178.275225 267.690077 
L 168.48631 266.766416 
L 160.196025 265.777217 
L 153.117396 264.720189 
L 147.090996 263.593051 
L 141.957396 262.393564 
L 137.620939 261.119562 
L 134.496139 259.999491 
L 131.785853 258.825143 
L 129.42631 257.595502 
L 127.768253 256.571365 
L 125.950768 255.239997 
L 123.973853 253.402625 
L 122.28391 251.258284 
L 121.486768 249.885768 
L 120.625853 247.954371 
L 120.05191 245.906363 
L 119.733053 244.293627 
L 119.509853 241.459918 
L 119.509853 239.672823 
L 119.60551 237.821368 
L 119.764939 235.906485 
L 120.753396 229.794524 
L 121.359225 226.910288 
L 122.762196 220.861038 
L 128.565396 196.743076 
L 129.617625 191.571084 
L 130.797396 184.729526 
L 131.817739 177.221954 
L 132.296025 172.393143 
L 132.614882 161.902218 
L 132.200368 155.239792 
L 131.785853 152.206464 
L 131.243796 149.383555 
L 130.287225 145.795362 
L 129.266882 143.062636 
L 127.895796 140.274117 
L 126.556596 138.221074 
L 124.834768 136.207042 
L 122.666539 134.384571 
L 120.94471 133.333392 
L 119.446082 132.650898 
L 117.277853 131.9704 
L 115.683568 131.666411 
L 115.683568 131.666411 
" clip-path="url(#pc8de3bff97)" style="fill: none; stroke: #5ec962; stroke-opacity: 0.4; stroke-width: 1.5; stroke-linecap: square"/>
   </g>
   <g id="line2d_40">
    <path d="M 175.75774 270.252057 
L 162.340498 268.333244 
L 152.989584 266.785586 
L 145.821733 265.396898 
L 139.595423 263.965975 
L 134.985207 262.703233 
L 130.993928 261.399561 
L 127.538418 260.029649 
L 124.994861 258.799843 
L 122.701659 257.443867 
L 121.032927 256.237906 
L 119.522654 254.903687 
L 118.199394 253.428538 
L 117.097995 251.806419 
L 116.244182 250.036359 
L 115.645042 248.122507 
L 115.286616 246.072044 
L 115.14178 243.893785 
L 115.214092 241.005055 
L 115.518938 237.946226 
L 116.135107 234.067066 
L 117.13187 229.269142 
L 118.744255 222.694795 
L 122.356825 209.220308 
L 125.173725 198.321317 
L 126.927662 190.698434 
L 128.244658 183.999874 
L 129.157463 178.276726 
L 129.81441 172.746776 
L 130.197223 167.464107 
L 130.301282 163.170366 
L 130.198835 159.120137 
L 129.89408 155.336407 
L 129.393768 151.837046 
L 128.705895 148.636169 
L 127.839098 145.743462 
L 126.802317 143.165105 
L 125.814677 141.257371 
L 124.720029 139.567113 
L 123.523208 138.090642 
L 122.229201 136.82213 
L 120.843329 135.754295 
L 119.370672 134.877962 
L 117.816489 134.182831 
L 115.850787 133.572063 
L 113.783064 133.185957 
L 113.428925 133.141974 
L 113.428925 133.141974 
" clip-path="url(#pc8de3bff97)" style="fill: none; stroke-dasharray: 5.55,2.4; stroke-dashoffset: 0; stroke: #5ec962; stroke-width: 1.5"/>
   </g>
   <g id="line2d_41">
    <path d="M 244.725053 268.305566 
L 232.066425 267.478731 
L 221.38471 266.60542 
L 210.734882 265.493634 
L 203.273625 264.511924 
L 196.896482 263.478142 
L 191.444025 262.390533 
L 186.78871 261.247352 
L 182.802996 260.046878 
L 179.391225 258.787435 
L 176.489625 257.467405 
L 173.588025 255.801234 
L 171.228482 254.043134 
L 169.60231 252.506215 
L 168.550082 251.228836 
L 167.625396 249.908382 
L 167.019568 248.889514 
L 165.80791 246.051849 
L 165.010768 242.648134 
L 164.660025 239.846002 
L 164.755682 232.030725 
L 165.13831 227.808314 
L 166.92391 213.518661 
L 167.689168 206.330156 
L 167.59351 201.391733 
L 166.987682 198.428321 
L 165.648482 195.314622 
L 165.170196 194.527777 
L 163.544025 192.528614 
L 160.769968 190.326308 
L 159.143796 189.388094 
L 156.082768 188.118605 
L 153.75511 187.433382 
L 151.650653 186.969969 
L 148.111339 186.454005 
L 144.60391 186.192804 
L 143.583568 186.156939 
L 143.583568 186.156939 
" clip-path="url(#pc8de3bff97)" style="fill: none; stroke: #fde725; stroke-opacity: 0.4; stroke-width: 1.5; stroke-linecap: square"/>
   </g>
   <g id="line2d_42">
    <path d="M 227.877085 270.333662 
L 216.334654 268.468116 
L 203.079551 266.301972 
L 194.094209 264.605346 
L 186.278807 262.892373 
L 180.563178 261.417288 
L 176.501686 260.17619 
L 173.053322 258.913083 
L 170.171287 257.615134 
L 167.797441 256.270171 
L 166.222428 255.153126 
L 164.90157 253.994688 
L 163.805675 252.791483 
L 162.711483 251.219715 
L 161.881481 249.569604 
L 161.276958 247.838549 
L 160.866077 246.025629 
L 160.592248 243.74339 
L 160.524467 241.34995 
L 160.669911 238.429897 
L 161.091162 234.946727 
L 161.838544 230.854554 
L 163.178924 225.021088 
L 165.730934 214.087274 
L 166.969841 208.948559 
L 167.875621 206.27935 
L 168.502221 204.336797 
L 168.684855 203.113186 
L 168.663204 201.703607 
L 168.403271 200.165161 
L 167.863002 198.396773 
L 167.079616 196.643102 
L 166.202024 195.207038 
L 165.166125 193.912844 
L 163.858282 192.640686 
L 162.260858 191.414038 
L 160.370478 190.253991 
L 158.187354 189.191452 
L 155.871649 188.328821 
L 153.429171 187.673197 
L 150.865514 187.216023 
L 147.801302 186.902151 
L 143.985936 186.745616 
L 141.247156 186.723342 
L 141.247156 186.723342 
" clip-path="url(#pc8de3bff97)" style="fill: none; stroke-dasharray: 5.55,2.4; stroke-dashoffset: 0; stroke: #fde725; stroke-width: 1.5"/>
   </g>
   <g id="patch_3">
    <path d="M 43.78125 281.518125 
L 43.78125 22.318125 
" style="fill: none; stroke: #000000; stroke-width: 0.8; stroke-linejoin: miter; stroke-linecap: square"/>
   </g>
   <g id="patch_4">
    <path d="M 490.18125 281.518125 
L 490.18125 22.318125 
" style="fill: none; stroke: #000000; stroke-width: 0.8; stroke-linejoin: miter; stroke-linecap: square"/>
   </g>
   <g id="patch_5">
    <path d="M 43.78125 281.518125 
L 490.18125 281.518125 
" style="fill: none; stroke: #000000; stroke-width: 0.8; stroke-linejoin: miter; stroke-linecap: square"/>
   </g>
   <g id="patch_6">
    <path d="M 43.78125 22.318125 
L 490.18125 22.318125 
" style="fill: none; stroke: #000000; stroke-width: 0.8; stroke-linejoin: miter; stroke-linecap: square"/>
   </g>
   <g id="text_19">
    <!-- Mass–Radius Curves: (TOV + PPEOS) vs (PIRNN Predictions) -->
    <g transform="translate(88.085625 16.318125) scale(0.12 -0.12)">
     <defs>
      <path id="DejaVuSans-2013" d="M 313 1978 
L 2888 1978 
L 2888 1528 
L 313 1528 
L 313 1978 
z
" transform="scale(0.015625)"/>
      <path id="DejaVuSans-43" d="M 4122 4306 
L 4122 3641 
Q 3803 3938 3442 4084 
Q 3081 4231 2675 4231 
Q 1875 4231 1450 3742 
Q 1025 3253 1025 2328 
Q 1025 1406 1450 917 
Q 1875 428 2675 428 
Q 3081 428 3442 575 
Q 3803 722 4122 1019 
L 4122 359 
Q 3791 134 3420 21 
Q 3050 -91 2638 -91 
Q 1578 -91 968 557 
Q 359 1206 359 2328 
Q 359 3453 968 4101 
Q 1578 4750 2638 4750 
Q 3056 4750 3426 4639 
Q 3797 4528 4122 4306 
z
" transform="scale(0.015625)"/>
      <path id="DejaVuSans-72" d="M 2631 2963 
Q 2534 3019 2420 3045 
Q 2306 3072 2169 3072 
Q 1681 3072 1420 2755 
Q 1159 2438 1159 1844 
L 1159 0 
L 581 0 
L 581 3500 
L 1159 3500 
L 1159 2956 
Q 1341 3275 1631 3429 
Q 1922 3584 2338 3584 
Q 2397 3584 2469 3576 
Q 2541 3569 2628 3553 
L 2631 2963 
z
" transform="scale(0.015625)"/>
      <path id="DejaVuSans-76" d="M 191 3500 
L 800 3500 
L 1894 563 
L 2988 3500 
L 3597 3500 
L 2284 0 
L 1503 0 
L 191 3500 
z
" transform="scale(0.015625)"/>
      <path id="DejaVuSans-65" d="M 3597 1894 
L 3597 1613 
L 953 1613 
Q 991 1019 1311 708 
Q 1631 397 2203 397 
Q 2534 397 2845 478 
Q 3156 559 3463 722 
L 3463 178 
Q 3153 47 2828 -22 
Q 2503 -91 2169 -91 
Q 1331 -91 842 396 
Q 353 884 353 1716 
Q 353 2575 817 3079 
Q 1281 3584 2069 3584 
Q 2775 3584 3186 3129 
Q 3597 2675 3597 1894 
z
M 3022 2063 
Q 3016 2534 2758 2815 
Q 2500 3097 2075 3097 
Q 1594 3097 1305 2825 
Q 1016 2553 972 2059 
L 3022 2063 
z
" transform="scale(0.015625)"/>
      <path id="DejaVuSans-3a" d="M 750 794 
L 1409 794 
L 1409 0 
L 750 0 
L 750 794 
z
M 750 3309 
L 1409 3309 
L 1409 2516 
L 750 2516 
L 750 3309 
z
" transform="scale(0.015625)"/>
      <path id="DejaVuSans-54" d="M -19 4666 
L 3928 4666 
L 3928 4134 
L 2272 4134 
L 2272 0 
L 1638 0 
L 1638 4134 
L -19 4134 
L -19 4666 
z
" transform="scale(0.015625)"/>
      <path id="DejaVuSans-4f" d="M 2522 4238 
Q 1834 4238 1429 3725 
Q 1025 3213 1025 2328 
Q 1025 1447 1429 934 
Q 1834 422 2522 422 
Q 3209 422 3611 934 
Q 4013 1447 4013 2328 
Q 4013 3213 3611 3725 
Q 3209 4238 2522 4238 
z
M 2522 4750 
Q 3503 4750 4090 4092 
Q 4678 3434 4678 2328 
Q 4678 1225 4090 567 
Q 3503 -91 2522 -91 
Q 1538 -91 948 565 
Q 359 1222 359 2328 
Q 359 3434 948 4092 
Q 1538 4750 2522 4750 
z
" transform="scale(0.015625)"/>
      <path id="DejaVuSans-56" d="M 1831 0 
L 50 4666 
L 709 4666 
L 2188 738 
L 3669 4666 
L 4325 4666 
L 2547 0 
L 1831 0 
z
" transform="scale(0.015625)"/>
      <path id="DejaVuSans-2b" d="M 2944 4013 
L 2944 2272 
L 4684 2272 
L 4684 1741 
L 2944 1741 
L 2944 0 
L 2419 0 
L 2419 1741 
L 678 1741 
L 678 2272 
L 2419 2272 
L 2419 4013 
L 2944 4013 
z
" transform="scale(0.015625)"/>
      <path id="DejaVuSans-50" d="M 1259 4147 
L 1259 2394 
L 2053 2394 
Q 2494 2394 2734 2622 
Q 2975 2850 2975 3272 
Q 2975 3691 2734 3919 
Q 2494 4147 2053 4147 
L 1259 4147 
z
M 628 4666 
L 2053 4666 
Q 2838 4666 3239 4311 
Q 3641 3956 3641 3272 
Q 3641 2581 3239 2228 
Q 2838 1875 2053 1875 
L 1259 1875 
L 1259 0 
L 628 0 
L 628 4666 
z
" transform="scale(0.015625)"/>
      <path id="DejaVuSans-45" d="M 628 4666 
L 3578 4666 
L 3578 4134 
L 1259 4134 
L 1259 2753 
L 3481 2753 
L 3481 2222 
L 1259 2222 
L 1259 531 
L 3634 531 
L 3634 0 
L 628 0 
L 628 4666 
z
" transform="scale(0.015625)"/>
      <path id="DejaVuSans-53" d="M 3425 4513 
L 3425 3897 
Q 3066 4069 2747 4153 
Q 2428 4238 2131 4238 
Q 1616 4238 1336 4038 
Q 1056 3838 1056 3469 
Q 1056 3159 1242 3001 
Q 1428 2844 1947 2747 
L 2328 2669 
Q 3034 2534 3370 2195 
Q 3706 1856 3706 1288 
Q 3706 609 3251 259 
Q 2797 -91 1919 -91 
Q 1588 -91 1214 -16 
Q 841 59 441 206 
L 441 856 
Q 825 641 1194 531 
Q 1563 422 1919 422 
Q 2459 422 2753 634 
Q 3047 847 3047 1241 
Q 3047 1584 2836 1778 
Q 2625 1972 2144 2069 
L 1759 2144 
Q 1053 2284 737 2584 
Q 422 2884 422 3419 
Q 422 4038 858 4394 
Q 1294 4750 2059 4750 
Q 2388 4750 2728 4690 
Q 3069 4631 3425 4513 
z
" transform="scale(0.015625)"/>
      <path id="DejaVuSans-49" d="M 628 4666 
L 1259 4666 
L 1259 0 
L 628 0 
L 628 4666 
z
" transform="scale(0.015625)"/>
      <path id="DejaVuSans-4e" d="M 628 4666 
L 1478 4666 
L 3547 763 
L 3547 4666 
L 4159 4666 
L 4159 0 
L 3309 0 
L 1241 3903 
L 1241 0 
L 628 0 
L 628 4666 
z
" transform="scale(0.015625)"/>
      <path id="DejaVuSans-63" d="M 3122 3366 
L 3122 2828 
Q 2878 2963 2633 3030 
Q 2388 3097 2138 3097 
Q 1578 3097 1268 2742 
Q 959 2388 959 1747 
Q 959 1106 1268 751 
Q 1578 397 2138 397 
Q 2388 397 2633 464 
Q 2878 531 3122 666 
L 3122 134 
Q 2881 22 2623 -34 
Q 2366 -91 2075 -91 
Q 1284 -91 818 406 
Q 353 903 353 1747 
Q 353 2603 823 3093 
Q 1294 3584 2113 3584 
Q 2378 3584 2631 3529 
Q 2884 3475 3122 3366 
z
" transform="scale(0.015625)"/>
      <path id="DejaVuSans-74" d="M 1172 4494 
L 1172 3500 
L 2356 3500 
L 2356 3053 
L 1172 3053 
L 1172 1153 
Q 1172 725 1289 603 
Q 1406 481 1766 481 
L 2356 481 
L 2356 0 
L 1766 0 
Q 1100 0 847 248 
Q 594 497 594 1153 
L 594 3053 
L 172 3053 
L 172 3500 
L 594 3500 
L 594 4494 
L 1172 4494 
z
" transform="scale(0.015625)"/>
      <path id="DejaVuSans-6f" d="M 1959 3097 
Q 1497 3097 1228 2736 
Q 959 2375 959 1747 
Q 959 1119 1226 758 
Q 1494 397 1959 397 
Q 2419 397 2687 759 
Q 2956 1122 2956 1747 
Q 2956 2369 2687 2733 
Q 2419 3097 1959 3097 
z
M 1959 3584 
Q 2709 3584 3137 3096 
Q 3566 2609 3566 1747 
Q 3566 888 3137 398 
Q 2709 -91 1959 -91 
Q 1206 -91 779 398 
Q 353 888 353 1747 
Q 353 2609 779 3096 
Q 1206 3584 1959 3584 
z
" transform="scale(0.015625)"/>
      <path id="DejaVuSans-6e" d="M 3513 2113 
L 3513 0 
L 2938 0 
L 2938 2094 
Q 2938 2591 2744 2837 
Q 2550 3084 2163 3084 
Q 1697 3084 1428 2787 
Q 1159 2491 1159 1978 
L 1159 0 
L 581 0 
L 581 3500 
L 1159 3500 
L 1159 2956 
Q 1366 3272 1645 3428 
Q 1925 3584 2291 3584 
Q 2894 3584 3203 3211 
Q 3513 2838 3513 2113 
z
" transform="scale(0.015625)"/>
     </defs>
     <use xlink:href="#DejaVuSans-4d"/>
     <use xlink:href="#DejaVuSans-61" transform="translate(86.279297 0)"/>
     <use xlink:href="#DejaVuSans-73" transform="translate(147.558594 0)"/>
     <use xlink:href="#DejaVuSans-73" transform="translate(199.658203 0)"/>
     <use xlink:href="#DejaVuSans-2013" transform="translate(251.757812 0)"/>
     <use xlink:href="#DejaVuSans-52" transform="translate(301.757812 0)"/>
     <use xlink:href="#DejaVuSans-61" transform="translate(368.990234 0)"/>
     <use xlink:href="#DejaVuSans-64" transform="translate(430.269531 0)"/>
     <use xlink:href="#DejaVuSans-69" transform="translate(493.746094 0)"/>
     <use xlink:href="#DejaVuSans-75" transform="translate(521.529297 0)"/>
     <use xlink:href="#DejaVuSans-73" transform="translate(584.908203 0)"/>
     <use xlink:href="#DejaVuSans-20" transform="translate(637.007812 0)"/>
     <use xlink:href="#DejaVuSans-43" transform="translate(668.794922 0)"/>
     <use xlink:href="#DejaVuSans-75" transform="translate(738.619141 0)"/>
     <use xlink:href="#DejaVuSans-72" transform="translate(801.998047 0)"/>
     <use xlink:href="#DejaVuSans-76" transform="translate(843.111328 0)"/>
     <use xlink:href="#DejaVuSans-65" transform="translate(902.291016 0)"/>
     <use xlink:href="#DejaVuSans-73" transform="translate(963.814453 0)"/>
     <use xlink:href="#DejaVuSans-3a" transform="translate(1015.914062 0)"/>
     <use xlink:href="#DejaVuSans-20" transform="translate(1049.605469 0)"/>
     <use xlink:href="#DejaVuSans-28" transform="translate(1081.392578 0)"/>
     <use xlink:href="#DejaVuSans-54" transform="translate(1120.40625 0)"/>
     <use xlink:href="#DejaVuSans-4f" transform="translate(1181.490234 0)"/>
     <use xlink:href="#DejaVuSans-56" transform="translate(1258.451172 0)"/>
     <use xlink:href="#DejaVuSans-20" transform="translate(1326.859375 0)"/>
     <use xlink:href="#DejaVuSans-2b" transform="translate(1358.646484 0)"/>
     <use xlink:href="#DejaVuSans-20" transform="translate(1442.435547 0)"/>
     <use xlink:href="#DejaVuSans-50" transform="translate(1474.222656 0)"/>
     <use xlink:href="#DejaVuSans-50" transform="translate(1534.525391 0)"/>
     <use xlink:href="#DejaVuSans-45" transform="translate(1594.828125 0)"/>
     <use xlink:href="#DejaVuSans-4f" transform="translate(1658.011719 0)"/>
     <use xlink:href="#DejaVuSans-53" transform="translate(1736.722656 0)"/>
     <use xlink:href="#DejaVuSans-29" transform="translate(1800.199219 0)"/>
     <use xlink:href="#DejaVuSans-20" transform="translate(1839.212891 0)"/>
     <use xlink:href="#DejaVuSans-76" transform="translate(1871 0)"/>
     <use xlink:href="#DejaVuSans-73" transform="translate(1930.179688 0)"/>
     <use xlink:href="#DejaVuSans-20" transform="translate(1982.279297 0)"/>
     <use xlink:href="#DejaVuSans-28" transform="translate(2014.066406 0)"/>
     <use xlink:href="#DejaVuSans-50" transform="translate(2053.080078 0)"/>
     <use xlink:href="#DejaVuSans-49" transform="translate(2113.382812 0)"/>
     <use xlink:href="#DejaVuSans-52" transform="translate(2142.875 0)"/>
     <use xlink:href="#DejaVuSans-4e" transform="translate(2212.357422 0)"/>
     <use xlink:href="#DejaVuSans-4e" transform="translate(2287.162109 0)"/>
     <use xlink:href="#DejaVuSans-20" transform="translate(2361.966797 0)"/>
     <use xlink:href="#DejaVuSans-50" transform="translate(2393.753906 0)"/>
     <use xlink:href="#DejaVuSans-72" transform="translate(2452.306641 0)"/>
     <use xlink:href="#DejaVuSans-65" transform="translate(2491.169922 0)"/>
     <use xlink:href="#DejaVuSans-64" transform="translate(2552.693359 0)"/>
     <use xlink:href="#DejaVuSans-69" transform="translate(2616.169922 0)"/>
     <use xlink:href="#DejaVuSans-63" transform="translate(2643.953125 0)"/>
     <use xlink:href="#DejaVuSans-74" transform="translate(2698.933594 0)"/>
     <use xlink:href="#DejaVuSans-69" transform="translate(2738.142578 0)"/>
     <use xlink:href="#DejaVuSans-6f" transform="translate(2765.925781 0)"/>
     <use xlink:href="#DejaVuSans-6e" transform="translate(2827.107422 0)"/>
     <use xlink:href="#DejaVuSans-73" transform="translate(2890.486328 0)"/>
     <use xlink:href="#DejaVuSans-29" transform="translate(2942.585938 0)"/>
    </g>
   </g>
  </g>
  <g id="legend_1">
   <g id="patch_7">
    <path d="M 88.017952 476.073125 
L 431.544548 476.073125 
Q 433.210548 476.073125 433.210548 474.407125 
L 433.210548 414.105734 
Q 433.210548 412.439734 431.544548 412.439734 
L 88.017952 412.439734 
Q 86.351952 412.439734 86.351952 414.105734 
L 86.351952 474.407125 
Q 86.351952 476.073125 88.017952 476.073125 
z
" style="fill: #ffffff; opacity: 0.8; stroke: #cccccc; stroke-linejoin: miter"/>
   </g>
   <g id="line2d_43">
    <path d="M 89.683952 419.185733 
L 98.013952 419.185733 
L 106.343952 419.185733 
" style="fill: none; stroke: #440154; stroke-opacity: 0.4; stroke-width: 1.5; stroke-linecap: square"/>
   </g>
   <g id="text_20">
    <!-- TOV Γ=(2.5,4.9,1.6), logp=34.80 -->
    <g transform="translate(113.007952 422.101233) scale(0.0833 -0.0833)">
     <defs>
      <path id="DejaVuSans-393" d="M 628 0 
L 628 4666 
L 3531 4666 
L 3531 4134 
L 1259 4134 
L 1259 0 
L 628 0 
z
" transform="scale(0.015625)"/>
      <path id="DejaVuSans-3d" d="M 678 2906 
L 4684 2906 
L 4684 2381 
L 678 2381 
L 678 2906 
z
M 678 1631 
L 4684 1631 
L 4684 1100 
L 678 1100 
L 678 1631 
z
" transform="scale(0.015625)"/>
      <path id="DejaVuSans-2c" d="M 750 794 
L 1409 794 
L 1409 256 
L 897 -744 
L 494 -744 
L 750 256 
L 750 794 
z
" transform="scale(0.015625)"/>
      <path id="DejaVuSans-39" d="M 703 97 
L 703 672 
Q 941 559 1184 500 
Q 1428 441 1663 441 
Q 2288 441 2617 861 
Q 2947 1281 2994 2138 
Q 2813 1869 2534 1725 
Q 2256 1581 1919 1581 
Q 1219 1581 811 2004 
Q 403 2428 403 3163 
Q 403 3881 828 4315 
Q 1253 4750 1959 4750 
Q 2769 4750 3195 4129 
Q 3622 3509 3622 2328 
Q 3622 1225 3098 567 
Q 2575 -91 1691 -91 
Q 1453 -91 1209 -44 
Q 966 3 703 97 
z
M 1959 2075 
Q 2384 2075 2632 2365 
Q 2881 2656 2881 3163 
Q 2881 3666 2632 3958 
Q 2384 4250 1959 4250 
Q 1534 4250 1286 3958 
Q 1038 3666 1038 3163 
Q 1038 2656 1286 2365 
Q 1534 2075 1959 2075 
z
" transform="scale(0.015625)"/>
      <path id="DejaVuSans-6c" d="M 603 4863 
L 1178 4863 
L 1178 0 
L 603 0 
L 603 4863 
z
" transform="scale(0.015625)"/>
      <path id="DejaVuSans-67" d="M 2906 1791 
Q 2906 2416 2648 2759 
Q 2391 3103 1925 3103 
Q 1463 3103 1205 2759 
Q 947 2416 947 1791 
Q 947 1169 1205 825 
Q 1463 481 1925 481 
Q 2391 481 2648 825 
Q 2906 1169 2906 1791 
z
M 3481 434 
Q 3481 -459 3084 -895 
Q 2688 -1331 1869 -1331 
Q 1566 -1331 1297 -1286 
Q 1028 -1241 775 -1147 
L 775 -588 
Q 1028 -725 1275 -790 
Q 1522 -856 1778 -856 
Q 2344 -856 2625 -561 
Q 2906 -266 2906 331 
L 2906 616 
Q 2728 306 2450 153 
Q 2172 0 1784 0 
Q 1141 0 747 490 
Q 353 981 353 1791 
Q 353 2603 747 3093 
Q 1141 3584 1784 3584 
Q 2172 3584 2450 3431 
Q 2728 3278 2906 2969 
L 2906 3500 
L 3481 3500 
L 3481 434 
z
" transform="scale(0.015625)"/>
      <path id="DejaVuSans-70" d="M 1159 525 
L 1159 -1331 
L 581 -1331 
L 581 3500 
L 1159 3500 
L 1159 2969 
Q 1341 3281 1617 3432 
Q 1894 3584 2278 3584 
Q 2916 3584 3314 3078 
Q 3713 2572 3713 1747 
Q 3713 922 3314 415 
Q 2916 -91 2278 -91 
Q 1894 -91 1617 61 
Q 1341 213 1159 525 
z
M 3116 1747 
Q 3116 2381 2855 2742 
Q 2594 3103 2138 3103 
Q 1681 3103 1420 2742 
Q 1159 2381 1159 1747 
Q 1159 1113 1420 752 
Q 1681 391 2138 391 
Q 2594 391 2855 752 
Q 3116 1113 3116 1747 
z
" transform="scale(0.015625)"/>
     </defs>
     <use xlink:href="#DejaVuSans-54"/>
     <use xlink:href="#DejaVuSans-4f" transform="translate(61.083984 0)"/>
     <use xlink:href="#DejaVuSans-56" transform="translate(138.044922 0)"/>
     <use xlink:href="#DejaVuSans-20" transform="translate(206.453125 0)"/>
     <use xlink:href="#DejaVuSans-393" transform="translate(238.240234 0)"/>
     <use xlink:href="#DejaVuSans-3d" transform="translate(293.953125 0)"/>
     <use xlink:href="#DejaVuSans-28" transform="translate(377.742188 0)"/>
     <use xlink:href="#DejaVuSans-32" transform="translate(416.755859 0)"/>
     <use xlink:href="#DejaVuSans-2e" transform="translate(480.378906 0)"/>
     <use xlink:href="#DejaVuSans-35" transform="translate(512.166016 0)"/>
     <use xlink:href="#DejaVuSans-2c" transform="translate(575.789062 0)"/>
     <use xlink:href="#DejaVuSans-34" transform="translate(607.576172 0)"/>
     <use xlink:href="#DejaVuSans-2e" transform="translate(671.199219 0)"/>
     <use xlink:href="#DejaVuSans-39" transform="translate(702.986328 0)"/>
     <use xlink:href="#DejaVuSans-2c" transform="translate(766.609375 0)"/>
     <use xlink:href="#DejaVuSans-31" transform="translate(798.396484 0)"/>
     <use xlink:href="#DejaVuSans-2e" transform="translate(862.019531 0)"/>
     <use xlink:href="#DejaVuSans-36" transform="translate(893.806641 0)"/>
     <use xlink:href="#DejaVuSans-29" transform="translate(957.429688 0)"/>
     <use xlink:href="#DejaVuSans-2c" transform="translate(996.443359 0)"/>
     <use xlink:href="#DejaVuSans-20" transform="translate(1028.230469 0)"/>
     <use xlink:href="#DejaVuSans-6c" transform="translate(1060.017578 0)"/>
     <use xlink:href="#DejaVuSans-6f" transform="translate(1087.800781 0)"/>
     <use xlink:href="#DejaVuSans-67" transform="translate(1148.982422 0)"/>
     <use xlink:href="#DejaVuSans-70" transform="translate(1212.458984 0)"/>
     <use xlink:href="#DejaVuSans-3d" transform="translate(1275.935547 0)"/>
     <use xlink:href="#DejaVuSans-33" transform="translate(1359.724609 0)"/>
     <use xlink:href="#DejaVuSans-34" transform="translate(1423.347656 0)"/>
     <use xlink:href="#DejaVuSans-2e" transform="translate(1486.970703 0)"/>
     <use xlink:href="#DejaVuSans-38" transform="translate(1518.757812 0)"/>
     <use xlink:href="#DejaVuSans-30" transform="translate(1582.380859 0)"/>
    </g>
   </g>
   <g id="line2d_44">
    <path d="M 89.683952 431.412611 
L 98.013952 431.412611 
L 106.343952 431.412611 
" style="fill: none; stroke-dasharray: 5.55,2.4; stroke-dashoffset: 0; stroke: #440154; stroke-width: 1.5"/>
   </g>
   <g id="text_21">
    <!-- Pred Γ=(2.5,4.9,1.6), logp=34.80 -->
    <g transform="translate(113.007952 434.328111) scale(0.0833 -0.0833)">
     <use xlink:href="#DejaVuSans-50"/>
     <use xlink:href="#DejaVuSans-72" transform="translate(58.552734 0)"/>
     <use xlink:href="#DejaVuSans-65" transform="translate(97.416016 0)"/>
     <use xlink:href="#DejaVuSans-64" transform="translate(158.939453 0)"/>
     <use xlink:href="#DejaVuSans-20" transform="translate(222.416016 0)"/>
     <use xlink:href="#DejaVuSans-393" transform="translate(254.203125 0)"/>
     <use xlink:href="#DejaVuSans-3d" transform="translate(309.916016 0)"/>
     <use xlink:href="#DejaVuSans-28" transform="translate(393.705078 0)"/>
     <use xlink:href="#DejaVuSans-32" transform="translate(432.71875 0)"/>
     <use xlink:href="#DejaVuSans-2e" transform="translate(496.341797 0)"/>
     <use xlink:href="#DejaVuSans-35" transform="translate(528.128906 0)"/>
     <use xlink:href="#DejaVuSans-2c" transform="translate(591.751953 0)"/>
     <use xlink:href="#DejaVuSans-34" transform="translate(623.539062 0)"/>
     <use xlink:href="#DejaVuSans-2e" transform="translate(687.162109 0)"/>
     <use xlink:href="#DejaVuSans-39" transform="translate(718.949219 0)"/>
     <use xlink:href="#DejaVuSans-2c" transform="translate(782.572266 0)"/>
     <use xlink:href="#DejaVuSans-31" transform="translate(814.359375 0)"/>
     <use xlink:href="#DejaVuSans-2e" transform="translate(877.982422 0)"/>
     <use xlink:href="#DejaVuSans-36" transform="translate(909.769531 0)"/>
     <use xlink:href="#DejaVuSans-29" transform="translate(973.392578 0)"/>
     <use xlink:href="#DejaVuSans-2c" transform="translate(1012.40625 0)"/>
     <use xlink:href="#DejaVuSans-20" transform="translate(1044.193359 0)"/>
     <use xlink:href="#DejaVuSans-6c" transform="translate(1075.980469 0)"/>
     <use xlink:href="#DejaVuSans-6f" transform="translate(1103.763672 0)"/>
     <use xlink:href="#DejaVuSans-67" transform="translate(1164.945312 0)"/>
     <use xlink:href="#DejaVuSans-70" transform="translate(1228.421875 0)"/>
     <use xlink:href="#DejaVuSans-3d" transform="translate(1291.898438 0)"/>
     <use xlink:href="#DejaVuSans-33" transform="translate(1375.6875 0)"/>
     <use xlink:href="#DejaVuSans-34" transform="translate(1439.310547 0)"/>
     <use xlink:href="#DejaVuSans-2e" transform="translate(1502.933594 0)"/>
     <use xlink:href="#DejaVuSans-38" transform="translate(1534.720703 0)"/>
     <use xlink:href="#DejaVuSans-30" transform="translate(1598.34375 0)"/>
    </g>
   </g>
   <g id="line2d_45">
    <path d="M 89.683952 443.639489 
L 98.013952 443.639489 
L 106.343952 443.639489 
" style="fill: none; stroke: #3b528b; stroke-opacity: 0.4; stroke-width: 1.5; stroke-linecap: square"/>
   </g>
   <g id="text_22">
    <!-- TOV Γ=(3.5,3.5,4.9), logp=34.80 -->
    <g transform="translate(113.007952 446.554989) scale(0.0833 -0.0833)">
     <use xlink:href="#DejaVuSans-54"/>
     <use xlink:href="#DejaVuSans-4f" transform="translate(61.083984 0)"/>
     <use xlink:href="#DejaVuSans-56" transform="translate(138.044922 0)"/>
     <use xlink:href="#DejaVuSans-20" transform="translate(206.453125 0)"/>
     <use xlink:href="#DejaVuSans-393" transform="translate(238.240234 0)"/>
     <use xlink:href="#DejaVuSans-3d" transform="translate(293.953125 0)"/>
     <use xlink:href="#DejaVuSans-28" transform="translate(377.742188 0)"/>
     <use xlink:href="#DejaVuSans-33" transform="translate(416.755859 0)"/>
     <use xlink:href="#DejaVuSans-2e" transform="translate(480.378906 0)"/>
     <use xlink:href="#DejaVuSans-35" transform="translate(512.166016 0)"/>
     <use xlink:href="#DejaVuSans-2c" transform="translate(575.789062 0)"/>
     <use xlink:href="#DejaVuSans-33" transform="translate(607.576172 0)"/>
     <use xlink:href="#DejaVuSans-2e" transform="translate(671.199219 0)"/>
     <use xlink:href="#DejaVuSans-35" transform="translate(702.986328 0)"/>
     <use xlink:href="#DejaVuSans-2c" transform="translate(766.609375 0)"/>
     <use xlink:href="#DejaVuSans-34" transform="translate(798.396484 0)"/>
     <use xlink:href="#DejaVuSans-2e" transform="translate(862.019531 0)"/>
     <use xlink:href="#DejaVuSans-39" transform="translate(893.806641 0)"/>
     <use xlink:href="#DejaVuSans-29" transform="translate(957.429688 0)"/>
     <use xlink:href="#DejaVuSans-2c" transform="translate(996.443359 0)"/>
     <use xlink:href="#DejaVuSans-20" transform="translate(1028.230469 0)"/>
     <use xlink:href="#DejaVuSans-6c" transform="translate(1060.017578 0)"/>
     <use xlink:href="#DejaVuSans-6f" transform="translate(1087.800781 0)"/>
     <use xlink:href="#DejaVuSans-67" transform="translate(1148.982422 0)"/>
     <use xlink:href="#DejaVuSans-70" transform="translate(1212.458984 0)"/>
     <use xlink:href="#DejaVuSans-3d" transform="translate(1275.935547 0)"/>
     <use xlink:href="#DejaVuSans-33" transform="translate(1359.724609 0)"/>
     <use xlink:href="#DejaVuSans-34" transform="translate(1423.347656 0)"/>
     <use xlink:href="#DejaVuSans-2e" transform="translate(1486.970703 0)"/>
     <use xlink:href="#DejaVuSans-38" transform="translate(1518.757812 0)"/>
     <use xlink:href="#DejaVuSans-30" transform="translate(1582.380859 0)"/>
    </g>
   </g>
   <g id="line2d_46">
    <path d="M 89.683952 455.866367 
L 98.013952 455.866367 
L 106.343952 455.866367 
" style="fill: none; stroke-dasharray: 5.55,2.4; stroke-dashoffset: 0; stroke: #3b528b; stroke-width: 1.5"/>
   </g>
   <g id="text_23">
    <!-- Pred Γ=(3.5,3.5,4.9), logp=34.80 -->
    <g transform="translate(113.007952 458.781867) scale(0.0833 -0.0833)">
     <use xlink:href="#DejaVuSans-50"/>
     <use xlink:href="#DejaVuSans-72" transform="translate(58.552734 0)"/>
     <use xlink:href="#DejaVuSans-65" transform="translate(97.416016 0)"/>
     <use xlink:href="#DejaVuSans-64" transform="translate(158.939453 0)"/>
     <use xlink:href="#DejaVuSans-20" transform="translate(222.416016 0)"/>
     <use xlink:href="#DejaVuSans-393" transform="translate(254.203125 0)"/>
     <use xlink:href="#DejaVuSans-3d" transform="translate(309.916016 0)"/>
     <use xlink:href="#DejaVuSans-28" transform="translate(393.705078 0)"/>
     <use xlink:href="#DejaVuSans-33" transform="translate(432.71875 0)"/>
     <use xlink:href="#DejaVuSans-2e" transform="translate(496.341797 0)"/>
     <use xlink:href="#DejaVuSans-35" transform="translate(528.128906 0)"/>
     <use xlink:href="#DejaVuSans-2c" transform="translate(591.751953 0)"/>
     <use xlink:href="#DejaVuSans-33" transform="translate(623.539062 0)"/>
     <use xlink:href="#DejaVuSans-2e" transform="translate(687.162109 0)"/>
     <use xlink:href="#DejaVuSans-35" transform="translate(718.949219 0)"/>
     <use xlink:href="#DejaVuSans-2c" transform="translate(782.572266 0)"/>
     <use xlink:href="#DejaVuSans-34" transform="translate(814.359375 0)"/>
     <use xlink:href="#DejaVuSans-2e" transform="translate(877.982422 0)"/>
     <use xlink:href="#DejaVuSans-39" transform="translate(909.769531 0)"/>
     <use xlink:href="#DejaVuSans-29" transform="translate(973.392578 0)"/>
     <use xlink:href="#DejaVuSans-2c" transform="translate(1012.40625 0)"/>
     <use xlink:href="#DejaVuSans-20" transform="translate(1044.193359 0)"/>
     <use xlink:href="#DejaVuSans-6c" transform="translate(1075.980469 0)"/>
     <use xlink:href="#DejaVuSans-6f" transform="translate(1103.763672 0)"/>
     <use xlink:href="#DejaVuSans-67" transform="translate(1164.945312 0)"/>
     <use xlink:href="#DejaVuSans-70" transform="translate(1228.421875 0)"/>
     <use xlink:href="#DejaVuSans-3d" transform="translate(1291.898438 0)"/>
     <use xlink:href="#DejaVuSans-33" transform="translate(1375.6875 0)"/>
     <use xlink:href="#DejaVuSans-34" transform="translate(1439.310547 0)"/>
     <use xlink:href="#DejaVuSans-2e" transform="translate(1502.933594 0)"/>
     <use xlink:href="#DejaVuSans-38" transform="translate(1534.720703 0)"/>
     <use xlink:href="#DejaVuSans-30" transform="translate(1598.34375 0)"/>
    </g>
   </g>
   <g id="line2d_47">
    <path d="M 89.683952 468.093245 
L 98.013952 468.093245 
L 106.343952 468.093245 
" style="fill: none; stroke: #21918c; stroke-opacity: 0.4; stroke-width: 1.5; stroke-linecap: square"/>
   </g>
   <g id="text_24">
    <!-- TOV Γ=(1.6,2.5,4.5), logp=34.80 -->
    <g transform="translate(113.007952 471.008745) scale(0.0833 -0.0833)">
     <use xlink:href="#DejaVuSans-54"/>
     <use xlink:href="#DejaVuSans-4f" transform="translate(61.083984 0)"/>
     <use xlink:href="#DejaVuSans-56" transform="translate(138.044922 0)"/>
     <use xlink:href="#DejaVuSans-20" transform="translate(206.453125 0)"/>
     <use xlink:href="#DejaVuSans-393" transform="translate(238.240234 0)"/>
     <use xlink:href="#DejaVuSans-3d" transform="translate(293.953125 0)"/>
     <use xlink:href="#DejaVuSans-28" transform="translate(377.742188 0)"/>
     <use xlink:href="#DejaVuSans-31" transform="translate(416.755859 0)"/>
     <use xlink:href="#DejaVuSans-2e" transform="translate(480.378906 0)"/>
     <use xlink:href="#DejaVuSans-36" transform="translate(512.166016 0)"/>
     <use xlink:href="#DejaVuSans-2c" transform="translate(575.789062 0)"/>
     <use xlink:href="#DejaVuSans-32" transform="translate(607.576172 0)"/>
     <use xlink:href="#DejaVuSans-2e" transform="translate(671.199219 0)"/>
     <use xlink:href="#DejaVuSans-35" transform="translate(702.986328 0)"/>
     <use xlink:href="#DejaVuSans-2c" transform="translate(766.609375 0)"/>
     <use xlink:href="#DejaVuSans-34" transform="translate(798.396484 0)"/>
     <use xlink:href="#DejaVuSans-2e" transform="translate(862.019531 0)"/>
     <use xlink:href="#DejaVuSans-35" transform="translate(893.806641 0)"/>
     <use xlink:href="#DejaVuSans-29" transform="translate(957.429688 0)"/>
     <use xlink:href="#DejaVuSans-2c" transform="translate(996.443359 0)"/>
     <use xlink:href="#DejaVuSans-20" transform="translate(1028.230469 0)"/>
     <use xlink:href="#DejaVuSans-6c" transform="translate(1060.017578 0)"/>
     <use xlink:href="#DejaVuSans-6f" transform="translate(1087.800781 0)"/>
     <use xlink:href="#DejaVuSans-67" transform="translate(1148.982422 0)"/>
     <use xlink:href="#DejaVuSans-70" transform="translate(1212.458984 0)"/>
     <use xlink:href="#DejaVuSans-3d" transform="translate(1275.935547 0)"/>
     <use xlink:href="#DejaVuSans-33" transform="translate(1359.724609 0)"/>
     <use xlink:href="#DejaVuSans-34" transform="translate(1423.347656 0)"/>
     <use xlink:href="#DejaVuSans-2e" transform="translate(1486.970703 0)"/>
     <use xlink:href="#DejaVuSans-38" transform="translate(1518.757812 0)"/>
     <use xlink:href="#DejaVuSans-30" transform="translate(1582.380859 0)"/>
    </g>
   </g>
   <g id="line2d_48">
    <path d="M 268.11125 419.185733 
L 276.44125 419.185733 
L 284.77125 419.185733 
" style="fill: none; stroke-dasharray: 5.55,2.4; stroke-dashoffset: 0; stroke: #21918c; stroke-width: 1.5"/>
   </g>
   <g id="text_25">
    <!-- Pred Γ=(1.6,2.5,4.5), logp=34.80 -->
    <g transform="translate(291.43525 422.101233) scale(0.0833 -0.0833)">
     <use xlink:href="#DejaVuSans-50"/>
     <use xlink:href="#DejaVuSans-72" transform="translate(58.552734 0)"/>
     <use xlink:href="#DejaVuSans-65" transform="translate(97.416016 0)"/>
     <use xlink:href="#DejaVuSans-64" transform="translate(158.939453 0)"/>
     <use xlink:href="#DejaVuSans-20" transform="translate(222.416016 0)"/>
     <use xlink:href="#DejaVuSans-393" transform="translate(254.203125 0)"/>
     <use xlink:href="#DejaVuSans-3d" transform="translate(309.916016 0)"/>
     <use xlink:href="#DejaVuSans-28" transform="translate(393.705078 0)"/>
     <use xlink:href="#DejaVuSans-31" transform="translate(432.71875 0)"/>
     <use xlink:href="#DejaVuSans-2e" transform="translate(496.341797 0)"/>
     <use xlink:href="#DejaVuSans-36" transform="translate(528.128906 0)"/>
     <use xlink:href="#DejaVuSans-2c" transform="translate(591.751953 0)"/>
     <use xlink:href="#DejaVuSans-32" transform="translate(623.539062 0)"/>
     <use xlink:href="#DejaVuSans-2e" transform="translate(687.162109 0)"/>
     <use xlink:href="#DejaVuSans-35" transform="translate(718.949219 0)"/>
     <use xlink:href="#DejaVuSans-2c" transform="translate(782.572266 0)"/>
     <use xlink:href="#DejaVuSans-34" transform="translate(814.359375 0)"/>
     <use xlink:href="#DejaVuSans-2e" transform="translate(877.982422 0)"/>
     <use xlink:href="#DejaVuSans-35" transform="translate(909.769531 0)"/>
     <use xlink:href="#DejaVuSans-29" transform="translate(973.392578 0)"/>
     <use xlink:href="#DejaVuSans-2c" transform="translate(1012.40625 0)"/>
     <use xlink:href="#DejaVuSans-20" transform="translate(1044.193359 0)"/>
     <use xlink:href="#DejaVuSans-6c" transform="translate(1075.980469 0)"/>
     <use xlink:href="#DejaVuSans-6f" transform="translate(1103.763672 0)"/>
     <use xlink:href="#DejaVuSans-67" transform="translate(1164.945312 0)"/>
     <use xlink:href="#DejaVuSans-70" transform="translate(1228.421875 0)"/>
     <use xlink:href="#DejaVuSans-3d" transform="translate(1291.898438 0)"/>
     <use xlink:href="#DejaVuSans-33" transform="translate(1375.6875 0)"/>
     <use xlink:href="#DejaVuSans-34" transform="translate(1439.310547 0)"/>
     <use xlink:href="#DejaVuSans-2e" transform="translate(1502.933594 0)"/>
     <use xlink:href="#DejaVuSans-38" transform="translate(1534.720703 0)"/>
     <use xlink:href="#DejaVuSans-30" transform="translate(1598.34375 0)"/>
    </g>
   </g>
   <g id="line2d_49">
    <path d="M 268.11125 431.412611 
L 276.44125 431.412611 
L 284.77125 431.412611 
" style="fill: none; stroke: #5ec962; stroke-opacity: 0.4; stroke-width: 1.5; stroke-linecap: square"/>
   </g>
   <g id="text_26">
    <!-- TOV Γ=(4.9,3.5,4.9), logp=33.60 -->
    <g transform="translate(291.43525 434.328111) scale(0.0833 -0.0833)">
     <use xlink:href="#DejaVuSans-54"/>
     <use xlink:href="#DejaVuSans-4f" transform="translate(61.083984 0)"/>
     <use xlink:href="#DejaVuSans-56" transform="translate(138.044922 0)"/>
     <use xlink:href="#DejaVuSans-20" transform="translate(206.453125 0)"/>
     <use xlink:href="#DejaVuSans-393" transform="translate(238.240234 0)"/>
     <use xlink:href="#DejaVuSans-3d" transform="translate(293.953125 0)"/>
     <use xlink:href="#DejaVuSans-28" transform="translate(377.742188 0)"/>
     <use xlink:href="#DejaVuSans-34" transform="translate(416.755859 0)"/>
     <use xlink:href="#DejaVuSans-2e" transform="translate(480.378906 0)"/>
     <use xlink:href="#DejaVuSans-39" transform="translate(512.166016 0)"/>
     <use xlink:href="#DejaVuSans-2c" transform="translate(575.789062 0)"/>
     <use xlink:href="#DejaVuSans-33" transform="translate(607.576172 0)"/>
     <use xlink:href="#DejaVuSans-2e" transform="translate(671.199219 0)"/>
     <use xlink:href="#DejaVuSans-35" transform="translate(702.986328 0)"/>
     <use xlink:href="#DejaVuSans-2c" transform="translate(766.609375 0)"/>
     <use xlink:href="#DejaVuSans-34" transform="translate(798.396484 0)"/>
     <use xlink:href="#DejaVuSans-2e" transform="translate(862.019531 0)"/>
     <use xlink:href="#DejaVuSans-39" transform="translate(893.806641 0)"/>
     <use xlink:href="#DejaVuSans-29" transform="translate(957.429688 0)"/>
     <use xlink:href="#DejaVuSans-2c" transform="translate(996.443359 0)"/>
     <use xlink:href="#DejaVuSans-20" transform="translate(1028.230469 0)"/>
     <use xlink:href="#DejaVuSans-6c" transform="translate(1060.017578 0)"/>
     <use xlink:href="#DejaVuSans-6f" transform="translate(1087.800781 0)"/>
     <use xlink:href="#DejaVuSans-67" transform="translate(1148.982422 0)"/>
     <use xlink:href="#DejaVuSans-70" transform="translate(1212.458984 0)"/>
     <use xlink:href="#DejaVuSans-3d" transform="translate(1275.935547 0)"/>
     <use xlink:href="#DejaVuSans-33" transform="translate(1359.724609 0)"/>
     <use xlink:href="#DejaVuSans-33" transform="translate(1423.347656 0)"/>
     <use xlink:href="#DejaVuSans-2e" transform="translate(1486.970703 0)"/>
     <use xlink:href="#DejaVuSans-36" transform="translate(1518.757812 0)"/>
     <use xlink:href="#DejaVuSans-30" transform="translate(1582.380859 0)"/>
    </g>
   </g>
   <g id="line2d_50">
    <path d="M 268.11125 443.639489 
L 276.44125 443.639489 
L 284.77125 443.639489 
" style="fill: none; stroke-dasharray: 5.55,2.4; stroke-dashoffset: 0; stroke: #5ec962; stroke-width: 1.5"/>
   </g>
   <g id="text_27">
    <!-- Pred Γ=(4.9,3.5,4.9), logp=33.60 -->
    <g transform="translate(291.43525 446.554989) scale(0.0833 -0.0833)">
     <use xlink:href="#DejaVuSans-50"/>
     <use xlink:href="#DejaVuSans-72" transform="translate(58.552734 0)"/>
     <use xlink:href="#DejaVuSans-65" transform="translate(97.416016 0)"/>
     <use xlink:href="#DejaVuSans-64" transform="translate(158.939453 0)"/>
     <use xlink:href="#DejaVuSans-20" transform="translate(222.416016 0)"/>
     <use xlink:href="#DejaVuSans-393" transform="translate(254.203125 0)"/>
     <use xlink:href="#DejaVuSans-3d" transform="translate(309.916016 0)"/>
     <use xlink:href="#DejaVuSans-28" transform="translate(393.705078 0)"/>
     <use xlink:href="#DejaVuSans-34" transform="translate(432.71875 0)"/>
     <use xlink:href="#DejaVuSans-2e" transform="translate(496.341797 0)"/>
     <use xlink:href="#DejaVuSans-39" transform="translate(528.128906 0)"/>
     <use xlink:href="#DejaVuSans-2c" transform="translate(591.751953 0)"/>
     <use xlink:href="#DejaVuSans-33" transform="translate(623.539062 0)"/>
     <use xlink:href="#DejaVuSans-2e" transform="translate(687.162109 0)"/>
     <use xlink:href="#DejaVuSans-35" transform="translate(718.949219 0)"/>
     <use xlink:href="#DejaVuSans-2c" transform="translate(782.572266 0)"/>
     <use xlink:href="#DejaVuSans-34" transform="translate(814.359375 0)"/>
     <use xlink:href="#DejaVuSans-2e" transform="translate(877.982422 0)"/>
     <use xlink:href="#DejaVuSans-39" transform="translate(909.769531 0)"/>
     <use xlink:href="#DejaVuSans-29" transform="translate(973.392578 0)"/>
     <use xlink:href="#DejaVuSans-2c" transform="translate(1012.40625 0)"/>
     <use xlink:href="#DejaVuSans-20" transform="translate(1044.193359 0)"/>
     <use xlink:href="#DejaVuSans-6c" transform="translate(1075.980469 0)"/>
     <use xlink:href="#DejaVuSans-6f" transform="translate(1103.763672 0)"/>
     <use xlink:href="#DejaVuSans-67" transform="translate(1164.945312 0)"/>
     <use xlink:href="#DejaVuSans-70" transform="translate(1228.421875 0)"/>
     <use xlink:href="#DejaVuSans-3d" transform="translate(1291.898438 0)"/>
     <use xlink:href="#DejaVuSans-33" transform="translate(1375.6875 0)"/>
     <use xlink:href="#DejaVuSans-33" transform="translate(1439.310547 0)"/>
     <use xlink:href="#DejaVuSans-2e" transform="translate(1502.933594 0)"/>
     <use xlink:href="#DejaVuSans-36" transform="translate(1534.720703 0)"/>
     <use xlink:href="#DejaVuSans-30" transform="translate(1598.34375 0)"/>
    </g>
   </g>
   <g id="line2d_51">
    <path d="M 268.11125 455.866367 
L 276.44125 455.866367 
L 284.77125 455.866367 
" style="fill: none; stroke: #fde725; stroke-opacity: 0.4; stroke-width: 1.5; stroke-linecap: square"/>
   </g>
   <g id="text_28">
    <!-- TOV Γ=(4.5,3.5,1.6), logp=34.00 -->
    <g transform="translate(291.43525 458.781867) scale(0.0833 -0.0833)">
     <use xlink:href="#DejaVuSans-54"/>
     <use xlink:href="#DejaVuSans-4f" transform="translate(61.083984 0)"/>
     <use xlink:href="#DejaVuSans-56" transform="translate(138.044922 0)"/>
     <use xlink:href="#DejaVuSans-20" transform="translate(206.453125 0)"/>
     <use xlink:href="#DejaVuSans-393" transform="translate(238.240234 0)"/>
     <use xlink:href="#DejaVuSans-3d" transform="translate(293.953125 0)"/>
     <use xlink:href="#DejaVuSans-28" transform="translate(377.742188 0)"/>
     <use xlink:href="#DejaVuSans-34" transform="translate(416.755859 0)"/>
     <use xlink:href="#DejaVuSans-2e" transform="translate(480.378906 0)"/>
     <use xlink:href="#DejaVuSans-35" transform="translate(512.166016 0)"/>
     <use xlink:href="#DejaVuSans-2c" transform="translate(575.789062 0)"/>
     <use xlink:href="#DejaVuSans-33" transform="translate(607.576172 0)"/>
     <use xlink:href="#DejaVuSans-2e" transform="translate(671.199219 0)"/>
     <use xlink:href="#DejaVuSans-35" transform="translate(702.986328 0)"/>
     <use xlink:href="#DejaVuSans-2c" transform="translate(766.609375 0)"/>
     <use xlink:href="#DejaVuSans-31" transform="translate(798.396484 0)"/>
     <use xlink:href="#DejaVuSans-2e" transform="translate(862.019531 0)"/>
     <use xlink:href="#DejaVuSans-36" transform="translate(893.806641 0)"/>
     <use xlink:href="#DejaVuSans-29" transform="translate(957.429688 0)"/>
     <use xlink:href="#DejaVuSans-2c" transform="translate(996.443359 0)"/>
     <use xlink:href="#DejaVuSans-20" transform="translate(1028.230469 0)"/>
     <use xlink:href="#DejaVuSans-6c" transform="translate(1060.017578 0)"/>
     <use xlink:href="#DejaVuSans-6f" transform="translate(1087.800781 0)"/>
     <use xlink:href="#DejaVuSans-67" transform="translate(1148.982422 0)"/>
     <use xlink:href="#DejaVuSans-70" transform="translate(1212.458984 0)"/>
     <use xlink:href="#DejaVuSans-3d" transform="translate(1275.935547 0)"/>
     <use xlink:href="#DejaVuSans-33" transform="translate(1359.724609 0)"/>
     <use xlink:href="#DejaVuSans-34" transform="translate(1423.347656 0)"/>
     <use xlink:href="#DejaVuSans-2e" transform="translate(1486.970703 0)"/>
     <use xlink:href="#DejaVuSans-30" transform="translate(1518.757812 0)"/>
     <use xlink:href="#DejaVuSans-30" transform="translate(1582.380859 0)"/>
    </g>
   </g>
   <g id="line2d_52">
    <path d="M 268.11125 468.093245 
L 276.44125 468.093245 
L 284.77125 468.093245 
" style="fill: none; stroke-dasharray: 5.55,2.4; stroke-dashoffset: 0; stroke: #fde725; stroke-width: 1.5"/>
   </g>
   <g id="text_29">
    <!-- Pred Γ=(4.5,3.5,1.6), logp=34.00 -->
    <g transform="translate(291.43525 471.008745) scale(0.0833 -0.0833)">
     <use xlink:href="#DejaVuSans-50"/>
     <use xlink:href="#DejaVuSans-72" transform="translate(58.552734 0)"/>
     <use xlink:href="#DejaVuSans-65" transform="translate(97.416016 0)"/>
     <use xlink:href="#DejaVuSans-64" transform="translate(158.939453 0)"/>
     <use xlink:href="#DejaVuSans-20" transform="translate(222.416016 0)"/>
     <use xlink:href="#DejaVuSans-393" transform="translate(254.203125 0)"/>
     <use xlink:href="#DejaVuSans-3d" transform="translate(309.916016 0)"/>
     <use xlink:href="#DejaVuSans-28" transform="translate(393.705078 0)"/>
     <use xlink:href="#DejaVuSans-34" transform="translate(432.71875 0)"/>
     <use xlink:href="#DejaVuSans-2e" transform="translate(496.341797 0)"/>
     <use xlink:href="#DejaVuSans-35" transform="translate(528.128906 0)"/>
     <use xlink:href="#DejaVuSans-2c" transform="translate(591.751953 0)"/>
     <use xlink:href="#DejaVuSans-33" transform="translate(623.539062 0)"/>
     <use xlink:href="#DejaVuSans-2e" transform="translate(687.162109 0)"/>
     <use xlink:href="#DejaVuSans-35" transform="translate(718.949219 0)"/>
     <use xlink:href="#DejaVuSans-2c" transform="translate(782.572266 0)"/>
     <use xlink:href="#DejaVuSans-31" transform="translate(814.359375 0)"/>
     <use xlink:href="#DejaVuSans-2e" transform="translate(877.982422 0)"/>
     <use xlink:href="#DejaVuSans-36" transform="translate(909.769531 0)"/>
     <use xlink:href="#DejaVuSans-29" transform="translate(973.392578 0)"/>
     <use xlink:href="#DejaVuSans-2c" transform="translate(1012.40625 0)"/>
     <use xlink:href="#DejaVuSans-20" transform="translate(1044.193359 0)"/>
     <use xlink:href="#DejaVuSans-6c" transform="translate(1075.980469 0)"/>
     <use xlink:href="#DejaVuSans-6f" transform="translate(1103.763672 0)"/>
     <use xlink:href="#DejaVuSans-67" transform="translate(1164.945312 0)"/>
     <use xlink:href="#DejaVuSans-70" transform="translate(1228.421875 0)"/>
     <use xlink:href="#DejaVuSans-3d" transform="translate(1291.898438 0)"/>
     <use xlink:href="#DejaVuSans-33" transform="translate(1375.6875 0)"/>
     <use xlink:href="#DejaVuSans-34" transform="translate(1439.310547 0)"/>
     <use xlink:href="#DejaVuSans-2e" transform="translate(1502.933594 0)"/>
     <use xlink:href="#DejaVuSans-30" transform="translate(1534.720703 0)"/>
     <use xlink:href="#DejaVuSans-30" transform="translate(1598.34375 0)"/>
    </g>
   </g>
  </g>
 </g>
 <defs>
  <clipPath id="pc8de3bff97">
   <rect x="43.78125" y="22.318125" width="446.4" height="259.2"/>
  </clipPath>
 </defs>
</svg>
