<?xml version="1.0" encoding="utf-8" standalone="no"?>
<!DOCTYPE svg PUBLIC "-//W3C//DTD SVG 1.1//EN"
  "http://www.w3.org/Graphics/SVG/1.1/DTD/svg11.dtd">
<svg xmlns:xlink="http://www.w3.org/1999/xlink" width="498.843437pt" height="555.236516pt" viewBox="0 0 498.843437 555.236516" xmlns="http://www.w3.org/2000/svg" version="1.1">
 <metadata>
  <rdf:RDF xmlns:dc="http://purl.org/dc/elements/1.1/" xmlns:cc="http://creativecommons.org/ns#" xmlns:rdf="http://www.w3.org/1999/02/22-rdf-syntax-ns#">
   <cc:Work>
    <dc:type rdf:resource="http://purl.org/dc/dcmitype/StillImage"/>
    <dc:date>2026-02-02T19:23:43.009552</dc:date>
    <dc:format>image/svg+xml</dc:format>
    <dc:creator>
     <cc:Agent>
      <dc:title>Matplotlib v3.10.3, https://matplotlib.org/</dc:title>
     </cc:Agent>
    </dc:creator>
   </cc:Work>
  </rdf:RDF>
 </metadata>
 <defs>
  <style type="text/css">*{stroke-linejoin: round; stroke-linecap: butt}</style>
 </defs>
 <g id="figure_1">
  <g id="patch_1">
   <path d="M 0 555.236516 
L 498.843437 555.236516 
L 498.843437 0 
L 0 0 
z
" style="fill: #ffffff"/>
  </g>
  <g id="axes_1">
   <g id="patch_2">
    <path d="M 34.2625 380.878125 
L 480.6625 380.878125 
L 480.6625 22.318125 
L 34.2625 22.318125 
z
" style="fill: #ffffff"/>
   </g>
   <g id="matplotlib.axis_1">
    <g id="xtick_1">
     <g id="line2d_1">
      <path d="M 119.494611 380.878125 
L 119.494611 22.318125 
" clip-path="url(#p4bca5d5e68)" style="fill: none; stroke: #b0b0b0; stroke-opacity: 0.3; stroke-width: 0.8; stroke-linecap: square"/>
     </g>
     <g id="line2d_2">
      <defs>
       <path id="m40ccdfca38" d="M 0 0 
L 0 3.5 
" style="stroke: #000000; stroke-width: 0.8"/>
      </defs>
      <g>
       <use xlink:href="#m40ccdfca38" x="119.494611" y="380.878125" style="stroke: #000000; stroke-width: 0.8"/>
      </g>
     </g>
     <g id="text_1">
      <!-- 0.05 -->
      <g transform="translate(108.361798 395.476562) scale(0.1 -0.1)">
       <defs>
        <path id="DejaVuSans-30" d="M 2034 4250 
Q 1547 4250 1301 3770 
Q 1056 3291 1056 2328 
Q 1056 1369 1301 889 
Q 1547 409 2034 409 
Q 2525 409 2770 889 
Q 3016 1369 3016 2328 
Q 3016 3291 2770 3770 
Q 2525 4250 2034 4250 
z
M 2034 4750 
Q 2819 4750 3233 4129 
Q 3647 3509 3647 2328 
Q 3647 1150 3233 529 
Q 2819 -91 2034 -91 
Q 1250 -91 836 529 
Q 422 1150 422 2328 
Q 422 3509 836 4129 
Q 1250 4750 2034 4750 
z
" transform="scale(0.015625)"/>
        <path id="DejaVuSans-2e" d="M 684 794 
L 1344 794 
L 1344 0 
L 684 0 
L 684 794 
z
" transform="scale(0.015625)"/>
        <path id="DejaVuSans-35" d="M 691 4666 
L 3169 4666 
L 3169 4134 
L 1269 4134 
L 1269 2991 
Q 1406 3038 1543 3061 
Q 1681 3084 1819 3084 
Q 2600 3084 3056 2656 
Q 3513 2228 3513 1497 
Q 3513 744 3044 326 
Q 2575 -91 1722 -91 
Q 1428 -91 1123 -41 
Q 819 9 494 109 
L 494 744 
Q 775 591 1075 516 
Q 1375 441 1709 441 
Q 2250 441 2565 725 
Q 2881 1009 2881 1497 
Q 2881 1984 2565 2268 
Q 2250 2553 1709 2553 
Q 1456 2553 1204 2497 
Q 953 2441 691 2322 
L 691 4666 
z
" transform="scale(0.015625)"/>
       </defs>
       <use xlink:href="#DejaVuSans-30"/>
       <use xlink:href="#DejaVuSans-2e" transform="translate(63.623047 0)"/>
       <use xlink:href="#DejaVuSans-30" transform="translate(95.410156 0)"/>
       <use xlink:href="#DejaVuSans-35" transform="translate(159.033203 0)"/>
      </g>
     </g>
    </g>
    <g id="xtick_2">
     <g id="line2d_3">
      <path d="M 206.845492 380.878125 
L 206.845492 22.318125 
" clip-path="url(#p4bca5d5e68)" style="fill: none; stroke: #b0b0b0; stroke-opacity: 0.3; stroke-width: 0.8; stroke-linecap: square"/>
     </g>
     <g id="line2d_4">
      <g>
       <use xlink:href="#m40ccdfca38" x="206.845492" y="380.878125" style="stroke: #000000; stroke-width: 0.8"/>
      </g>
     </g>
     <g id="text_2">
      <!-- 0.10 -->
      <g transform="translate(195.71268 395.476562) scale(0.1 -0.1)">
       <defs>
        <path id="DejaVuSans-31" d="M 794 531 
L 1825 531 
L 1825 4091 
L 703 3866 
L 703 4441 
L 1819 4666 
L 2450 4666 
L 2450 531 
L 3481 531 
L 3481 0 
L 794 0 
L 794 531 
z
" transform="scale(0.015625)"/>
       </defs>
       <use xlink:href="#DejaVuSans-30"/>
       <use xlink:href="#DejaVuSans-2e" transform="translate(63.623047 0)"/>
       <use xlink:href="#DejaVuSans-31" transform="translate(95.410156 0)"/>
       <use xlink:href="#DejaVuSans-30" transform="translate(159.033203 0)"/>
      </g>
     </g>
    </g>
    <g id="xtick_3">
     <g id="line2d_5">
      <path d="M 294.196374 380.878125 
L 294.196374 22.318125 
" clip-path="url(#p4bca5d5e68)" style="fill: none; stroke: #b0b0b0; stroke-opacity: 0.3; stroke-width: 0.8; stroke-linecap: square"/>
     </g>
     <g id="line2d_6">
      <g>
       <use xlink:href="#m40ccdfca38" x="294.196374" y="380.878125" style="stroke: #000000; stroke-width: 0.8"/>
      </g>
     </g>
     <g id="text_3">
      <!-- 0.15 -->
      <g transform="translate(283.063561 395.476562) scale(0.1 -0.1)">
       <use xlink:href="#DejaVuSans-30"/>
       <use xlink:href="#DejaVuSans-2e" transform="translate(63.623047 0)"/>
       <use xlink:href="#DejaVuSans-31" transform="translate(95.410156 0)"/>
       <use xlink:href="#DejaVuSans-35" transform="translate(159.033203 0)"/>
      </g>
     </g>
    </g>
    <g id="xtick_4">
     <g id="line2d_7">
      <path d="M 381.547256 380.878125 
L 381.547256 22.318125 
" clip-path="url(#p4bca5d5e68)" style="fill: none; stroke: #b0b0b0; stroke-opacity: 0.3; stroke-width: 0.8; stroke-linecap: square"/>
     </g>
     <g id="line2d_8">
      <g>
       <use xlink:href="#m40ccdfca38" x="381.547256" y="380.878125" style="stroke: #000000; stroke-width: 0.8"/>
      </g>
     </g>
     <g id="text_4">
      <!-- 0.20 -->
      <g transform="translate(370.414443 395.476562) scale(0.1 -0.1)">
       <defs>
        <path id="DejaVuSans-32" d="M 1228 531 
L 3431 531 
L 3431 0 
L 469 0 
L 469 531 
Q 828 903 1448 1529 
Q 2069 2156 2228 2338 
Q 2531 2678 2651 2914 
Q 2772 3150 2772 3378 
Q 2772 3750 2511 3984 
Q 2250 4219 1831 4219 
Q 1534 4219 1204 4116 
Q 875 4013 500 3803 
L 500 4441 
Q 881 4594 1212 4672 
Q 1544 4750 1819 4750 
Q 2544 4750 2975 4387 
Q 3406 4025 3406 3419 
Q 3406 3131 3298 2873 
Q 3191 2616 2906 2266 
Q 2828 2175 2409 1742 
Q 1991 1309 1228 531 
z
" transform="scale(0.015625)"/>
       </defs>
       <use xlink:href="#DejaVuSans-30"/>
       <use xlink:href="#DejaVuSans-2e" transform="translate(63.623047 0)"/>
       <use xlink:href="#DejaVuSans-32" transform="translate(95.410156 0)"/>
       <use xlink:href="#DejaVuSans-30" transform="translate(159.033203 0)"/>
      </g>
     </g>
    </g>
    <g id="xtick_5">
     <g id="line2d_9">
      <path d="M 468.898137 380.878125 
L 468.898137 22.318125 
" clip-path="url(#p4bca5d5e68)" style="fill: none; stroke: #b0b0b0; stroke-opacity: 0.3; stroke-width: 0.8; stroke-linecap: square"/>
     </g>
     <g id="line2d_10">
      <g>
       <use xlink:href="#m40ccdfca38" x="468.898137" y="380.878125" style="stroke: #000000; stroke-width: 0.8"/>
      </g>
     </g>
     <g id="text_5">
      <!-- 0.25 -->
      <g transform="translate(457.765325 395.476562) scale(0.1 -0.1)">
       <use xlink:href="#DejaVuSans-30"/>
       <use xlink:href="#DejaVuSans-2e" transform="translate(63.623047 0)"/>
       <use xlink:href="#DejaVuSans-32" transform="translate(95.410156 0)"/>
       <use xlink:href="#DejaVuSans-35" transform="translate(159.033203 0)"/>
      </g>
     </g>
    </g>
    <g id="text_6">
     <!-- Compactness ($M/R$) -->
     <g transform="translate(208.7625 409.15625) scale(0.1 -0.1)">
      <defs>
       <path id="DejaVuSans-43" d="M 4122 4306 
L 4122 3641 
Q 3803 3938 3442 4084 
Q 3081 4231 2675 4231 
Q 1875 4231 1450 3742 
Q 1025 3253 1025 2328 
Q 1025 1406 1450 917 
Q 1875 428 2675 428 
Q 3081 428 3442 575 
Q 3803 722 4122 1019 
L 4122 359 
Q 3791 134 3420 21 
Q 3050 -91 2638 -91 
Q 1578 -91 968 557 
Q 359 1206 359 2328 
Q 359 3453 968 4101 
Q 1578 4750 2638 4750 
Q 3056 4750 3426 4639 
Q 3797 4528 4122 4306 
z
" transform="scale(0.015625)"/>
       <path id="DejaVuSans-6f" d="M 1959 3097 
Q 1497 3097 1228 2736 
Q 959 2375 959 1747 
Q 959 1119 1226 758 
Q 1494 397 1959 397 
Q 2419 397 2687 759 
Q 2956 1122 2956 1747 
Q 2956 2369 2687 2733 
Q 2419 3097 1959 3097 
z
M 1959 3584 
Q 2709 3584 3137 3096 
Q 3566 2609 3566 1747 
Q 3566 888 3137 398 
Q 2709 -91 1959 -91 
Q 1206 -91 779 398 
Q 353 888 353 1747 
Q 353 2609 779 3096 
Q 1206 3584 1959 3584 
z
" transform="scale(0.015625)"/>
       <path id="DejaVuSans-6d" d="M 3328 2828 
Q 3544 3216 3844 3400 
Q 4144 3584 4550 3584 
Q 5097 3584 5394 3201 
Q 5691 2819 5691 2113 
L 5691 0 
L 5113 0 
L 5113 2094 
Q 5113 2597 4934 2840 
Q 4756 3084 4391 3084 
Q 3944 3084 3684 2787 
Q 3425 2491 3425 1978 
L 3425 0 
L 2847 0 
L 2847 2094 
Q 2847 2600 2669 2842 
Q 2491 3084 2119 3084 
Q 1678 3084 1418 2786 
Q 1159 2488 1159 1978 
L 1159 0 
L 581 0 
L 581 3500 
L 1159 3500 
L 1159 2956 
Q 1356 3278 1631 3431 
Q 1906 3584 2284 3584 
Q 2666 3584 2933 3390 
Q 3200 3197 3328 2828 
z
" transform="scale(0.015625)"/>
       <path id="DejaVuSans-70" d="M 1159 525 
L 1159 -1331 
L 581 -1331 
L 581 3500 
L 1159 3500 
L 1159 2969 
Q 1341 3281 1617 3432 
Q 1894 3584 2278 3584 
Q 2916 3584 3314 3078 
Q 3713 2572 3713 1747 
Q 3713 922 3314 415 
Q 2916 -91 2278 -91 
Q 1894 -91 1617 61 
Q 1341 213 1159 525 
z
M 3116 1747 
Q 3116 2381 2855 2742 
Q 2594 3103 2138 3103 
Q 1681 3103 1420 2742 
Q 1159 2381 1159 1747 
Q 1159 1113 1420 752 
Q 1681 391 2138 391 
Q 2594 391 2855 752 
Q 3116 1113 3116 1747 
z
" transform="scale(0.015625)"/>
       <path id="DejaVuSans-61" d="M 2194 1759 
Q 1497 1759 1228 1600 
Q 959 1441 959 1056 
Q 959 750 1161 570 
Q 1363 391 1709 391 
Q 2188 391 2477 730 
Q 2766 1069 2766 1631 
L 2766 1759 
L 2194 1759 
z
M 3341 1997 
L 3341 0 
L 2766 0 
L 2766 531 
Q 2569 213 2275 61 
Q 1981 -91 1556 -91 
Q 1019 -91 701 211 
Q 384 513 384 1019 
Q 384 1609 779 1909 
Q 1175 2209 1959 2209 
L 2766 2209 
L 2766 2266 
Q 2766 2663 2505 2880 
Q 2244 3097 1772 3097 
Q 1472 3097 1187 3025 
Q 903 2953 641 2809 
L 641 3341 
Q 956 3463 1253 3523 
Q 1550 3584 1831 3584 
Q 2591 3584 2966 3190 
Q 3341 2797 3341 1997 
z
" transform="scale(0.015625)"/>
       <path id="DejaVuSans-63" d="M 3122 3366 
L 3122 2828 
Q 2878 2963 2633 3030 
Q 2388 3097 2138 3097 
Q 1578 3097 1268 2742 
Q 959 2388 959 1747 
Q 959 1106 1268 751 
Q 1578 397 2138 397 
Q 2388 397 2633 464 
Q 2878 531 3122 666 
L 3122 134 
Q 2881 22 2623 -34 
Q 2366 -91 2075 -91 
Q 1284 -91 818 406 
Q 353 903 353 1747 
Q 353 2603 823 3093 
Q 1294 3584 2113 3584 
Q 2378 3584 2631 3529 
Q 2884 3475 3122 3366 
z
" transform="scale(0.015625)"/>
       <path id="DejaVuSans-74" d="M 1172 4494 
L 1172 3500 
L 2356 3500 
L 2356 3053 
L 1172 3053 
L 1172 1153 
Q 1172 725 1289 603 
Q 1406 481 1766 481 
L 2356 481 
L 2356 0 
L 1766 0 
Q 1100 0 847 248 
Q 594 497 594 1153 
L 594 3053 
L 172 3053 
L 172 3500 
L 594 3500 
L 594 4494 
L 1172 4494 
z
" transform="scale(0.015625)"/>
       <path id="DejaVuSans-6e" d="M 3513 2113 
L 3513 0 
L 2938 0 
L 2938 2094 
Q 2938 2591 2744 2837 
Q 2550 3084 2163 3084 
Q 1697 3084 1428 2787 
Q 1159 2491 1159 1978 
L 1159 0 
L 581 0 
L 581 3500 
L 1159 3500 
L 1159 2956 
Q 1366 3272 1645 3428 
Q 1925 3584 2291 3584 
Q 2894 3584 3203 3211 
Q 3513 2838 3513 2113 
z
" transform="scale(0.015625)"/>
       <path id="DejaVuSans-65" d="M 3597 1894 
L 3597 1613 
L 953 1613 
Q 991 1019 1311 708 
Q 1631 397 2203 397 
Q 2534 397 2845 478 
Q 3156 559 3463 722 
L 3463 178 
Q 3153 47 2828 -22 
Q 2503 -91 2169 -91 
Q 1331 -91 842 396 
Q 353 884 353 1716 
Q 353 2575 817 3079 
Q 1281 3584 2069 3584 
Q 2775 3584 3186 3129 
Q 3597 2675 3597 1894 
z
M 3022 2063 
Q 3016 2534 2758 2815 
Q 2500 3097 2075 3097 
Q 1594 3097 1305 2825 
Q 1016 2553 972 2059 
L 3022 2063 
z
" transform="scale(0.015625)"/>
       <path id="DejaVuSans-73" d="M 2834 3397 
L 2834 2853 
Q 2591 2978 2328 3040 
Q 2066 3103 1784 3103 
Q 1356 3103 1142 2972 
Q 928 2841 928 2578 
Q 928 2378 1081 2264 
Q 1234 2150 1697 2047 
L 1894 2003 
Q 2506 1872 2764 1633 
Q 3022 1394 3022 966 
Q 3022 478 2636 193 
Q 2250 -91 1575 -91 
Q 1294 -91 989 -36 
Q 684 19 347 128 
L 347 722 
Q 666 556 975 473 
Q 1284 391 1588 391 
Q 1994 391 2212 530 
Q 2431 669 2431 922 
Q 2431 1156 2273 1281 
Q 2116 1406 1581 1522 
L 1381 1569 
Q 847 1681 609 1914 
Q 372 2147 372 2553 
Q 372 3047 722 3315 
Q 1072 3584 1716 3584 
Q 2034 3584 2315 3537 
Q 2597 3491 2834 3397 
z
" transform="scale(0.015625)"/>
       <path id="DejaVuSans-20" transform="scale(0.015625)"/>
       <path id="DejaVuSans-28" d="M 1984 4856 
Q 1566 4138 1362 3434 
Q 1159 2731 1159 2009 
Q 1159 1288 1364 580 
Q 1569 -128 1984 -844 
L 1484 -844 
Q 1016 -109 783 600 
Q 550 1309 550 2009 
Q 550 2706 781 3412 
Q 1013 4119 1484 4856 
L 1984 4856 
z
" transform="scale(0.015625)"/>
       <path id="DejaVuSans-Oblique-4d" d="M 1081 4666 
L 2028 4666 
L 2572 1522 
L 4378 4666 
L 5350 4666 
L 4441 0 
L 3828 0 
L 4622 4091 
L 2791 897 
L 2175 897 
L 1581 4103 
L 788 0 
L 172 0 
L 1081 4666 
z
" transform="scale(0.015625)"/>
       <path id="DejaVuSans-2f" d="M 1625 4666 
L 2156 4666 
L 531 -594 
L 0 -594 
L 1625 4666 
z
" transform="scale(0.015625)"/>
       <path id="DejaVuSans-Oblique-52" d="M 1613 4147 
L 1294 2491 
L 2106 2491 
Q 2584 2491 2879 2755 
Q 3175 3019 3175 3444 
Q 3175 3784 2976 3965 
Q 2778 4147 2406 4147 
L 1613 4147 
z
M 2772 2241 
Q 2972 2194 3105 2009 
Q 3238 1825 3413 1275 
L 3809 0 
L 3144 0 
L 2778 1197 
Q 2638 1659 2453 1815 
Q 2269 1972 1888 1972 
L 1191 1972 
L 806 0 
L 172 0 
L 1081 4666 
L 2503 4666 
Q 3150 4666 3495 4373 
Q 3841 4081 3841 3531 
Q 3841 3044 3547 2687 
Q 3253 2331 2772 2241 
z
" transform="scale(0.015625)"/>
       <path id="DejaVuSans-29" d="M 513 4856 
L 1013 4856 
Q 1481 4119 1714 3412 
Q 1947 2706 1947 2009 
Q 1947 1309 1714 600 
Q 1481 -109 1013 -844 
L 513 -844 
Q 928 -128 1133 580 
Q 1338 1288 1338 2009 
Q 1338 2731 1133 3434 
Q 928 4138 513 4856 
z
" transform="scale(0.015625)"/>
      </defs>
      <use xlink:href="#DejaVuSans-43" transform="translate(0 0.125)"/>
      <use xlink:href="#DejaVuSans-6f" transform="translate(69.824219 0.125)"/>
      <use xlink:href="#DejaVuSans-6d" transform="translate(131.005859 0.125)"/>
      <use xlink:href="#DejaVuSans-70" transform="translate(228.417969 0.125)"/>
      <use xlink:href="#DejaVuSans-61" transform="translate(291.894531 0.125)"/>
      <use xlink:href="#DejaVuSans-63" transform="translate(353.173828 0.125)"/>
      <use xlink:href="#DejaVuSans-74" transform="translate(408.154297 0.125)"/>
      <use xlink:href="#DejaVuSans-6e" transform="translate(447.363281 0.125)"/>
      <use xlink:href="#DejaVuSans-65" transform="translate(510.742188 0.125)"/>
      <use xlink:href="#DejaVuSans-73" transform="translate(572.265625 0.125)"/>
      <use xlink:href="#DejaVuSans-73" transform="translate(624.365234 0.125)"/>
      <use xlink:href="#DejaVuSans-20" transform="translate(676.464844 0.125)"/>
      <use xlink:href="#DejaVuSans-28" transform="translate(708.251953 0.125)"/>
      <use xlink:href="#DejaVuSans-Oblique-4d" transform="translate(747.265625 0.125)"/>
      <use xlink:href="#DejaVuSans-2f" transform="translate(833.544922 0.125)"/>
      <use xlink:href="#DejaVuSans-Oblique-52" transform="translate(865.486328 0.125)"/>
      <use xlink:href="#DejaVuSans-29" transform="translate(934.96875 0.125)"/>
     </g>
    </g>
   </g>
   <g id="matplotlib.axis_2">
    <g id="ytick_1">
     <g id="line2d_11">
      <path d="M 34.2625 364.633384 
L 480.6625 364.633384 
" clip-path="url(#p4bca5d5e68)" style="fill: none; stroke: #b0b0b0; stroke-opacity: 0.3; stroke-width: 0.8; stroke-linecap: square"/>
     </g>
     <g id="line2d_12">
      <defs>
       <path id="m0396c938f5" d="M 0 0 
L -3.5 0 
" style="stroke: #000000; stroke-width: 0.8"/>
      </defs>
      <g>
       <use xlink:href="#m0396c938f5" x="34.2625" y="364.633384" style="stroke: #000000; stroke-width: 0.8"/>
      </g>
     </g>
     <g id="text_7">
      <!-- 0 -->
      <g transform="translate(20.9 368.432603) scale(0.1 -0.1)">
       <use xlink:href="#DejaVuSans-30"/>
      </g>
     </g>
    </g>
    <g id="ytick_2">
     <g id="line2d_13">
      <path d="M 34.2625 313.760135 
L 480.6625 313.760135 
" clip-path="url(#p4bca5d5e68)" style="fill: none; stroke: #b0b0b0; stroke-opacity: 0.3; stroke-width: 0.8; stroke-linecap: square"/>
     </g>
     <g id="line2d_14">
      <g>
       <use xlink:href="#m0396c938f5" x="34.2625" y="313.760135" style="stroke: #000000; stroke-width: 0.8"/>
      </g>
     </g>
     <g id="text_8">
      <!-- 1 -->
      <g transform="translate(20.9 317.559354) scale(0.1 -0.1)">
       <use xlink:href="#DejaVuSans-31"/>
      </g>
     </g>
    </g>
    <g id="ytick_3">
     <g id="line2d_15">
      <path d="M 34.2625 262.886886 
L 480.6625 262.886886 
" clip-path="url(#p4bca5d5e68)" style="fill: none; stroke: #b0b0b0; stroke-opacity: 0.3; stroke-width: 0.8; stroke-linecap: square"/>
     </g>
     <g id="line2d_16">
      <g>
       <use xlink:href="#m0396c938f5" x="34.2625" y="262.886886" style="stroke: #000000; stroke-width: 0.8"/>
      </g>
     </g>
     <g id="text_9">
      <!-- 2 -->
      <g transform="translate(20.9 266.686105) scale(0.1 -0.1)">
       <use xlink:href="#DejaVuSans-32"/>
      </g>
     </g>
    </g>
    <g id="ytick_4">
     <g id="line2d_17">
      <path d="M 34.2625 212.013637 
L 480.6625 212.013637 
" clip-path="url(#p4bca5d5e68)" style="fill: none; stroke: #b0b0b0; stroke-opacity: 0.3; stroke-width: 0.8; stroke-linecap: square"/>
     </g>
     <g id="line2d_18">
      <g>
       <use xlink:href="#m0396c938f5" x="34.2625" y="212.013637" style="stroke: #000000; stroke-width: 0.8"/>
      </g>
     </g>
     <g id="text_10">
      <!-- 3 -->
      <g transform="translate(20.9 215.812856) scale(0.1 -0.1)">
       <defs>
        <path id="DejaVuSans-33" d="M 2597 2516 
Q 3050 2419 3304 2112 
Q 3559 1806 3559 1356 
Q 3559 666 3084 287 
Q 2609 -91 1734 -91 
Q 1441 -91 1130 -33 
Q 819 25 488 141 
L 488 750 
Q 750 597 1062 519 
Q 1375 441 1716 441 
Q 2309 441 2620 675 
Q 2931 909 2931 1356 
Q 2931 1769 2642 2001 
Q 2353 2234 1838 2234 
L 1294 2234 
L 1294 2753 
L 1863 2753 
Q 2328 2753 2575 2939 
Q 2822 3125 2822 3475 
Q 2822 3834 2567 4026 
Q 2313 4219 1838 4219 
Q 1578 4219 1281 4162 
Q 984 4106 628 3988 
L 628 4550 
Q 988 4650 1302 4700 
Q 1616 4750 1894 4750 
Q 2613 4750 3031 4423 
Q 3450 4097 3450 3541 
Q 3450 3153 3228 2886 
Q 3006 2619 2597 2516 
z
" transform="scale(0.015625)"/>
       </defs>
       <use xlink:href="#DejaVuSans-33"/>
      </g>
     </g>
    </g>
    <g id="ytick_5">
     <g id="line2d_19">
      <path d="M 34.2625 161.140388 
L 480.6625 161.140388 
" clip-path="url(#p4bca5d5e68)" style="fill: none; stroke: #b0b0b0; stroke-opacity: 0.3; stroke-width: 0.8; stroke-linecap: square"/>
     </g>
     <g id="line2d_20">
      <g>
       <use xlink:href="#m0396c938f5" x="34.2625" y="161.140388" style="stroke: #000000; stroke-width: 0.8"/>
      </g>
     </g>
     <g id="text_11">
      <!-- 4 -->
      <g transform="translate(20.9 164.939607) scale(0.1 -0.1)">
       <defs>
        <path id="DejaVuSans-34" d="M 2419 4116 
L 825 1625 
L 2419 1625 
L 2419 4116 
z
M 2253 4666 
L 3047 4666 
L 3047 1625 
L 3713 1625 
L 3713 1100 
L 3047 1100 
L 3047 0 
L 2419 0 
L 2419 1100 
L 313 1100 
L 313 1709 
L 2253 4666 
z
" transform="scale(0.015625)"/>
       </defs>
       <use xlink:href="#DejaVuSans-34"/>
      </g>
     </g>
    </g>
    <g id="ytick_6">
     <g id="line2d_21">
      <path d="M 34.2625 110.26714 
L 480.6625 110.26714 
" clip-path="url(#p4bca5d5e68)" style="fill: none; stroke: #b0b0b0; stroke-opacity: 0.3; stroke-width: 0.8; stroke-linecap: square"/>
     </g>
     <g id="line2d_22">
      <g>
       <use xlink:href="#m0396c938f5" x="34.2625" y="110.26714" style="stroke: #000000; stroke-width: 0.8"/>
      </g>
     </g>
     <g id="text_12">
      <!-- 5 -->
      <g transform="translate(20.9 114.066358) scale(0.1 -0.1)">
       <use xlink:href="#DejaVuSans-35"/>
      </g>
     </g>
    </g>
    <g id="ytick_7">
     <g id="line2d_23">
      <path d="M 34.2625 59.393891 
L 480.6625 59.393891 
" clip-path="url(#p4bca5d5e68)" style="fill: none; stroke: #b0b0b0; stroke-opacity: 0.3; stroke-width: 0.8; stroke-linecap: square"/>
     </g>
     <g id="line2d_24">
      <g>
       <use xlink:href="#m0396c938f5" x="34.2625" y="59.393891" style="stroke: #000000; stroke-width: 0.8"/>
      </g>
     </g>
     <g id="text_13">
      <!-- 6 -->
      <g transform="translate(20.9 63.193109) scale(0.1 -0.1)">
       <defs>
        <path id="DejaVuSans-36" d="M 2113 2584 
Q 1688 2584 1439 2293 
Q 1191 2003 1191 1497 
Q 1191 994 1439 701 
Q 1688 409 2113 409 
Q 2538 409 2786 701 
Q 3034 994 3034 1497 
Q 3034 2003 2786 2293 
Q 2538 2584 2113 2584 
z
M 3366 4563 
L 3366 3988 
Q 3128 4100 2886 4159 
Q 2644 4219 2406 4219 
Q 1781 4219 1451 3797 
Q 1122 3375 1075 2522 
Q 1259 2794 1537 2939 
Q 1816 3084 2150 3084 
Q 2853 3084 3261 2657 
Q 3669 2231 3669 1497 
Q 3669 778 3244 343 
Q 2819 -91 2113 -91 
Q 1303 -91 875 529 
Q 447 1150 447 2328 
Q 447 3434 972 4092 
Q 1497 4750 2381 4750 
Q 2619 4750 2861 4703 
Q 3103 4656 3366 4563 
z
" transform="scale(0.015625)"/>
       </defs>
       <use xlink:href="#DejaVuSans-36"/>
      </g>
     </g>
    </g>
    <g id="text_14">
     <!-- Tidal Deformability (log$_{10}$) -->
     <g transform="translate(14.8 267.048125) rotate(-90) scale(0.1 -0.1)">
      <defs>
       <path id="DejaVuSans-54" d="M -19 4666 
L 3928 4666 
L 3928 4134 
L 2272 4134 
L 2272 0 
L 1638 0 
L 1638 4134 
L -19 4134 
L -19 4666 
z
" transform="scale(0.015625)"/>
       <path id="DejaVuSans-69" d="M 603 3500 
L 1178 3500 
L 1178 0 
L 603 0 
L 603 3500 
z
M 603 4863 
L 1178 4863 
L 1178 4134 
L 603 4134 
L 603 4863 
z
" transform="scale(0.015625)"/>
       <path id="DejaVuSans-64" d="M 2906 2969 
L 2906 4863 
L 3481 4863 
L 3481 0 
L 2906 0 
L 2906 525 
Q 2725 213 2448 61 
Q 2172 -91 1784 -91 
Q 1150 -91 751 415 
Q 353 922 353 1747 
Q 353 2572 751 3078 
Q 1150 3584 1784 3584 
Q 2172 3584 2448 3432 
Q 2725 3281 2906 2969 
z
M 947 1747 
Q 947 1113 1208 752 
Q 1469 391 1925 391 
Q 2381 391 2643 752 
Q 2906 1113 2906 1747 
Q 2906 2381 2643 2742 
Q 2381 3103 1925 3103 
Q 1469 3103 1208 2742 
Q 947 2381 947 1747 
z
" transform="scale(0.015625)"/>
       <path id="DejaVuSans-6c" d="M 603 4863 
L 1178 4863 
L 1178 0 
L 603 0 
L 603 4863 
z
" transform="scale(0.015625)"/>
       <path id="DejaVuSans-44" d="M 1259 4147 
L 1259 519 
L 2022 519 
Q 2988 519 3436 956 
Q 3884 1394 3884 2338 
Q 3884 3275 3436 3711 
Q 2988 4147 2022 4147 
L 1259 4147 
z
M 628 4666 
L 1925 4666 
Q 3281 4666 3915 4102 
Q 4550 3538 4550 2338 
Q 4550 1131 3912 565 
Q 3275 0 1925 0 
L 628 0 
L 628 4666 
z
" transform="scale(0.015625)"/>
       <path id="DejaVuSans-66" d="M 2375 4863 
L 2375 4384 
L 1825 4384 
Q 1516 4384 1395 4259 
Q 1275 4134 1275 3809 
L 1275 3500 
L 2222 3500 
L 2222 3053 
L 1275 3053 
L 1275 0 
L 697 0 
L 697 3053 
L 147 3053 
L 147 3500 
L 697 3500 
L 697 3744 
Q 697 4328 969 4595 
Q 1241 4863 1831 4863 
L 2375 4863 
z
" transform="scale(0.015625)"/>
       <path id="DejaVuSans-72" d="M 2631 2963 
Q 2534 3019 2420 3045 
Q 2306 3072 2169 3072 
Q 1681 3072 1420 2755 
Q 1159 2438 1159 1844 
L 1159 0 
L 581 0 
L 581 3500 
L 1159 3500 
L 1159 2956 
Q 1341 3275 1631 3429 
Q 1922 3584 2338 3584 
Q 2397 3584 2469 3576 
Q 2541 3569 2628 3553 
L 2631 2963 
z
" transform="scale(0.015625)"/>
       <path id="DejaVuSans-62" d="M 3116 1747 
Q 3116 2381 2855 2742 
Q 2594 3103 2138 3103 
Q 1681 3103 1420 2742 
Q 1159 2381 1159 1747 
Q 1159 1113 1420 752 
Q 1681 391 2138 391 
Q 2594 391 2855 752 
Q 3116 1113 3116 1747 
z
M 1159 2969 
Q 1341 3281 1617 3432 
Q 1894 3584 2278 3584 
Q 2916 3584 3314 3078 
Q 3713 2572 3713 1747 
Q 3713 922 3314 415 
Q 2916 -91 2278 -91 
Q 1894 -91 1617 61 
Q 1341 213 1159 525 
L 1159 0 
L 581 0 
L 581 4863 
L 1159 4863 
L 1159 2969 
z
" transform="scale(0.015625)"/>
       <path id="DejaVuSans-79" d="M 2059 -325 
Q 1816 -950 1584 -1140 
Q 1353 -1331 966 -1331 
L 506 -1331 
L 506 -850 
L 844 -850 
Q 1081 -850 1212 -737 
Q 1344 -625 1503 -206 
L 1606 56 
L 191 3500 
L 800 3500 
L 1894 763 
L 2988 3500 
L 3597 3500 
L 2059 -325 
z
" transform="scale(0.015625)"/>
       <path id="DejaVuSans-67" d="M 2906 1791 
Q 2906 2416 2648 2759 
Q 2391 3103 1925 3103 
Q 1463 3103 1205 2759 
Q 947 2416 947 1791 
Q 947 1169 1205 825 
Q 1463 481 1925 481 
Q 2391 481 2648 825 
Q 2906 1169 2906 1791 
z
M 3481 434 
Q 3481 -459 3084 -895 
Q 2688 -1331 1869 -1331 
Q 1566 -1331 1297 -1286 
Q 1028 -1241 775 -1147 
L 775 -588 
Q 1028 -725 1275 -790 
Q 1522 -856 1778 -856 
Q 2344 -856 2625 -561 
Q 2906 -266 2906 331 
L 2906 616 
Q 2728 306 2450 153 
Q 2172 0 1784 0 
Q 1141 0 747 490 
Q 353 981 353 1791 
Q 353 2603 747 3093 
Q 1141 3584 1784 3584 
Q 2172 3584 2450 3431 
Q 2728 3278 2906 2969 
L 2906 3500 
L 3481 3500 
L 3481 434 
z
" transform="scale(0.015625)"/>
      </defs>
      <use xlink:href="#DejaVuSans-54" transform="translate(0 0.015625)"/>
      <use xlink:href="#DejaVuSans-69" transform="translate(61.083984 0.015625)"/>
      <use xlink:href="#DejaVuSans-64" transform="translate(88.867188 0.015625)"/>
      <use xlink:href="#DejaVuSans-61" transform="translate(152.34375 0.015625)"/>
      <use xlink:href="#DejaVuSans-6c" transform="translate(213.623047 0.015625)"/>
      <use xlink:href="#DejaVuSans-20" transform="translate(241.40625 0.015625)"/>
      <use xlink:href="#DejaVuSans-44" transform="translate(273.193359 0.015625)"/>
      <use xlink:href="#DejaVuSans-65" transform="translate(350.195312 0.015625)"/>
      <use xlink:href="#DejaVuSans-66" transform="translate(411.71875 0.015625)"/>
      <use xlink:href="#DejaVuSans-6f" transform="translate(446.923828 0.015625)"/>
      <use xlink:href="#DejaVuSans-72" transform="translate(508.105469 0.015625)"/>
      <use xlink:href="#DejaVuSans-6d" transform="translate(549.21875 0.015625)"/>
      <use xlink:href="#DejaVuSans-61" transform="translate(646.630859 0.015625)"/>
      <use xlink:href="#DejaVuSans-62" transform="translate(707.910156 0.015625)"/>
      <use xlink:href="#DejaVuSans-69" transform="translate(771.386719 0.015625)"/>
      <use xlink:href="#DejaVuSans-6c" transform="translate(799.169922 0.015625)"/>
      <use xlink:href="#DejaVuSans-69" transform="translate(826.953125 0.015625)"/>
      <use xlink:href="#DejaVuSans-74" transform="translate(854.736328 0.015625)"/>
      <use xlink:href="#DejaVuSans-79" transform="translate(893.945312 0.015625)"/>
      <use xlink:href="#DejaVuSans-20" transform="translate(953.125 0.015625)"/>
      <use xlink:href="#DejaVuSans-28" transform="translate(984.912109 0.015625)"/>
      <use xlink:href="#DejaVuSans-6c" transform="translate(1023.925781 0.015625)"/>
      <use xlink:href="#DejaVuSans-6f" transform="translate(1051.708984 0.015625)"/>
      <use xlink:href="#DejaVuSans-67" transform="translate(1112.890625 0.015625)"/>
      <use xlink:href="#DejaVuSans-31" transform="translate(1177.324219 -16.390625) scale(0.7)"/>
      <use xlink:href="#DejaVuSans-30" transform="translate(1221.860352 -16.390625) scale(0.7)"/>
      <use xlink:href="#DejaVuSans-29" transform="translate(1269.130859 0.015625)"/>
     </g>
    </g>
   </g>
   <g id="line2d_25">
    <path d="M 143.376098 162.250851 
L 150.451667 169.338316 
L 155.908057 174.598721 
L 164.001568 182.121015 
L 171.679456 188.966261 
L 182.878023 198.491135 
L 189.617149 204.003676 
L 196.4476 209.437317 
L 205.457694 216.38971 
L 213.164794 222.182243 
L 229.395774 233.857036 
L 240.886729 241.68049 
L 251.391607 248.563929 
L 264.260254 256.677223 
L 279.545398 265.942753 
L 295.167694 275.093085 
L 312.834108 285.121737 
L 328.319465 293.74194 
L 400.597743 333.661993 
L 417.27168 343.371928 
L 430.328518 351.338838 
L 438.725617 356.69601 
L 446.688095 362.039505 
L 449.492307 364.003746 
L 449.492307 364.003746 
" clip-path="url(#p4bca5d5e68)" style="fill: none; stroke: #440154; stroke-opacity: 0.4; stroke-width: 1.5; stroke-linecap: square"/>
   </g>
   <g id="line2d_26">
    <path d="M 142.985898 161.453611 
L 150.090189 168.767912 
L 157.310329 175.870535 
L 164.121101 182.25595 
L 171.212565 188.587901 
L 178.675429 194.936602 
L 186.556092 201.348617 
L 195.546534 208.374753 
L 204.631953 215.210232 
L 213.866662 221.871707 
L 242.535447 242.169863 
L 251.283821 247.897649 
L 260.558033 253.722675 
L 272.146895 260.741328 
L 288.011512 270.047953 
L 307.935742 281.449716 
L 333.146951 295.612892 
L 367.322352 314.537824 
L 404.498722 335.159176 
L 418.677729 343.266188 
L 429.800232 349.881757 
L 438.530825 355.325625 
L 446.26173 360.39865 
L 452.161892 364.519402 
L 452.161892 364.519402 
" clip-path="url(#p4bca5d5e68)" style="fill: none; stroke-dasharray: 5.55,2.4; stroke-dashoffset: 0; stroke: #440154; stroke-width: 1.5"/>
   </g>
   <g id="line2d_27">
    <path d="M 102.465933 112.311371 
L 108.07967 119.692201 
L 111.407803 123.917 
L 117.440142 131.222585 
L 124.660693 139.493016 
L 130.308622 145.676855 
L 138.136594 153.809538 
L 145.271763 160.848076 
L 153.733281 168.82807 
L 161.41023 175.744761 
L 168.167585 181.619618 
L 175.098226 187.424413 
L 188.201105 197.912186 
L 195.548794 203.546529 
L 201.765527 208.176365 
L 215.712508 218.207817 
L 222.154718 222.715866 
L 241.752983 235.843751 
L 262.875264 249.317497 
L 279.98192 259.82575 
L 303.214778 273.671866 
L 316.965734 281.730464 
L 333.793618 291.478962 
L 354.081876 303.211863 
L 370.597043 312.873222 
L 386.424261 322.296275 
L 404.849231 333.69369 
L 422.363746 345.168695 
L 426.542136 348.039333 
L 432.071555 351.865128 
L 437.174322 355.478747 
L 446.480423 362.433309 
L 449.103107 364.487023 
L 449.103107 364.487023 
" clip-path="url(#p4bca5d5e68)" style="fill: none; stroke: #3b528b; stroke-opacity: 0.4; stroke-width: 1.5; stroke-linecap: square"/>
   </g>
   <g id="line2d_28">
    <path d="M 101.388869 112.242635 
L 107.140428 119.698167 
L 113.118616 127.083205 
L 119.325772 134.39246 
L 125.766417 141.621007 
L 132.448522 148.768654 
L 139.3784 155.835739 
L 146.563479 162.827429 
L 154.007055 169.749401 
L 161.709786 176.609611 
L 169.65862 183.40886 
L 179.010727 191.093645 
L 187.408545 197.727296 
L 196.05266 204.286073 
L 205.014765 210.803551 
L 215.569912 218.193986 
L 232.830287 229.957893 
L 244.73695 237.840977 
L 256.710837 245.501067 
L 270.055833 253.778566 
L 285.931834 263.372785 
L 305.298693 274.805319 
L 328.823972 288.418209 
L 375.004709 315.067276 
L 389.305672 323.603999 
L 400.359784 330.475774 
L 418.956586 342.38618 
L 429.361129 349.274809 
L 437.046665 354.634737 
L 443.6227 359.474677 
L 449.656951 364.183165 
L 450.146945 364.579943 
L 450.146945 364.579943 
" clip-path="url(#p4bca5d5e68)" style="fill: none; stroke-dasharray: 5.55,2.4; stroke-dashoffset: 0; stroke: #3b528b; stroke-width: 1.5"/>
   </g>
   <g id="line2d_29">
    <path d="M 183.183456 232.060549 
L 187.705321 236.340882 
L 194.032114 242.013749 
L 202.513658 249.185095 
L 211.288988 256.165205 
L 224.584815 266.106457 
L 233.799186 272.651812 
L 245.437945 280.615925 
L 258.63547 289.30416 
L 270.468549 296.741739 
L 281.873815 303.621182 
L 292.346722 309.737604 
L 313.429245 321.61745 
L 327.332483 329.281467 
L 345.874293 339.440947 
L 366.91849 351.252014 
L 382.330612 360.479142 
L 388.361448 364.445517 
L 388.361448 364.445517 
" clip-path="url(#p4bca5d5e68)" style="fill: none; stroke: #21918c; stroke-opacity: 0.4; stroke-width: 1.5; stroke-linecap: square"/>
   </g>
   <g id="line2d_30">
    <path d="M 181.860633 231.881076 
L 188.260065 237.700643 
L 196.220344 244.630147 
L 204.444045 251.501116 
L 212.303398 257.79013 
L 220.119626 263.763161 
L 228.211136 269.654569 
L 238.446203 276.785563 
L 252.083388 286.061792 
L 260.086309 291.187331 
L 269.711449 297.04083 
L 281.648109 304.016734 
L 299.227445 314.004567 
L 317.576646 324.160353 
L 339.638727 336.074197 
L 360.668914 347.474107 
L 370.953887 353.293101 
L 378.752779 357.953377 
L 384.532335 361.643552 
L 388.728299 364.532458 
L 388.728299 364.532458 
" clip-path="url(#p4bca5d5e68)" style="fill: none; stroke-dasharray: 5.55,2.4; stroke-dashoffset: 0; stroke: #21918c; stroke-width: 1.5"/>
   </g>
   <g id="line2d_31">
    <path d="M 60.573874 50.570667 
L 64.068314 58.223662 
L 67.255695 64.759744 
L 70.619538 71.296852 
L 74.169973 77.808359 
L 79.192356 86.430258 
L 84.557305 95.001872 
L 88.810904 101.398746 
L 94.782692 109.864638 
L 98.700005 115.169615 
L 107.566041 126.376954 
L 113.857427 133.789476 
L 117.847756 138.281289 
L 121.982971 142.805522 
L 129.23718 150.388918 
L 136.907587 157.969579 
L 141.696639 162.534789 
L 151.729036 171.596998 
L 156.944363 176.113157 
L 164.108074 182.105094 
L 173.356637 189.580168 
L 186.869292 199.872189 
L 192.837403 204.271572 
L 215.494011 220.01255 
L 234.705309 232.521474 
L 252.14111 243.315751 
L 282.822654 261.382967 
L 295.881476 268.818937 
L 302.324806 272.422866 
L 312.974679 278.378475 
L 319.26975 281.846319 
L 341.639745 294.120244 
L 351.409728 299.438395 
L 366.314319 307.629441 
L 380.371875 315.371609 
L 404.097945 328.724336 
L 427.778625 342.749449 
L 438.749033 349.600019 
L 453.952441 359.731909 
L 457.648213 362.360209 
L 460.371591 364.34959 
L 460.371591 364.34959 
" clip-path="url(#p4bca5d5e68)" style="fill: none; stroke: #5ec962; stroke-opacity: 0.4; stroke-width: 1.5; stroke-linecap: square"/>
   </g>
   <g id="line2d_32">
    <path d="M 58.356053 50.798245 
L 64.148757 61.635354 
L 69.018295 70.295454 
L 73.480013 77.829971 
L 78.124957 85.274199 
L 82.934119 92.581683 
L 87.925446 99.771757 
L 93.233706 107.008868 
L 98.256837 113.502754 
L 103.951338 120.518654 
L 110.479895 128.205828 
L 117.892527 136.545453 
L 124.712433 143.873678 
L 132.061975 151.406909 
L 138.284447 157.499467 
L 144.781152 163.59889 
L 151.526949 169.673691 
L 158.499585 175.704851 
L 167.51133 183.172221 
L 176.829582 190.557138 
L 186.433583 197.860328 
L 196.305342 205.08463 
L 206.421653 212.229172 
L 218.84158 220.690694 
L 231.509118 229.018917 
L 244.351281 237.196921 
L 259.456472 246.52747 
L 274.583289 255.609555 
L 291.752062 265.657506 
L 310.729577 276.509679 
L 335.141605 290.194459 
L 395.52254 323.888511 
L 410.116063 332.346452 
L 423.117198 340.135176 
L 434.545507 347.246482 
L 445.405101 354.278507 
L 456.93321 362.030595 
L 459.818251 364.00279 
L 459.818251 364.00279 
" clip-path="url(#p4bca5d5e68)" style="fill: none; stroke-dasharray: 5.55,2.4; stroke-dashoffset: 0; stroke: #5ec962; stroke-width: 1.5"/>
   </g>
   <g id="line2d_33">
    <path d="M 57.479932 39.030975 
L 60.985774 47.298175 
L 64.148732 54.252529 
L 66.90208 59.991717 
L 72.743258 71.26801 
L 76.469987 77.961402 
L 79.704932 83.487469 
L 87.975214 96.603865 
L 93.890435 105.220707 
L 102.577319 116.945566 
L 107.586655 123.298911 
L 118.18957 135.845243 
L 129.574158 148.16804 
L 136.571958 155.26233 
L 144.881546 163.29454 
L 154.626697 172.262234 
L 161.35251 178.148159 
L 175.291975 189.743189 
L 181.273515 194.497964 
L 197.307328 206.729458 
L 204.936571 212.231595 
L 207.206866 213.895762 
L 211.01803 216.57967 
L 253.402697 246.438958 
L 254.926578 247.559133 
L 261.689939 252.523791 
L 263.016998 253.512205 
L 264.548807 254.674153 
L 269.850545 258.714795 
L 274.216864 262.152965 
L 278.538312 265.687137 
L 278.538312 265.687137 
" clip-path="url(#p4bca5d5e68)" style="fill: none; stroke: #fde725; stroke-opacity: 0.4; stroke-width: 1.5; stroke-linecap: square"/>
   </g>
   <g id="line2d_34">
    <path d="M 54.553409 38.616307 
L 61.620299 52.072846 
L 66.081778 60.025479 
L 71.397695 68.992834 
L 79.60644 82.330265 
L 86.595059 93.30994 
L 92.370105 101.978555 
L 97.634596 109.475738 
L 103.151194 116.899322 
L 108.108195 123.212121 
L 113.292626 129.487538 
L 118.710239 135.729429 
L 124.358518 141.937505 
L 131.220032 149.126124 
L 138.33263 156.231197 
L 145.648937 163.228114 
L 153.145153 170.110873 
L 160.86296 176.915192 
L 168.914782 183.710706 
L 176.184932 189.578741 
L 183.801475 195.467203 
L 192.804843 202.148448 
L 208.667707 213.825414 
L 217.700332 220.695946 
L 228.141202 228.047932 
L 262.643166 252.365996 
L 268.983616 257.256484 
L 275.022575 262.191087 
L 279.056481 265.638876 
L 279.056481 265.638876 
" clip-path="url(#p4bca5d5e68)" style="fill: none; stroke-dasharray: 5.55,2.4; stroke-dashoffset: 0; stroke: #fde725; stroke-width: 1.5"/>
   </g>
   <g id="patch_3">
    <path d="M 34.2625 380.878125 
L 34.2625 22.318125 
" style="fill: none; stroke: #000000; stroke-width: 0.8; stroke-linejoin: miter; stroke-linecap: square"/>
   </g>
   <g id="patch_4">
    <path d="M 480.6625 380.878125 
L 480.6625 22.318125 
" style="fill: none; stroke: #000000; stroke-width: 0.8; stroke-linejoin: miter; stroke-linecap: square"/>
   </g>
   <g id="patch_5">
    <path d="M 34.2625 380.878125 
L 480.6625 380.878125 
" style="fill: none; stroke: #000000; stroke-width: 0.8; stroke-linejoin: miter; stroke-linecap: square"/>
   </g>
   <g id="patch_6">
    <path d="M 34.2625 22.318125 
L 480.6625 22.318125 
" style="fill: none; stroke: #000000; stroke-width: 0.8; stroke-linejoin: miter; stroke-linecap: square"/>
   </g>
   <g id="text_15">
    <!-- Tidal Deformability-Compactness curve (TOV + PPEOS) vs (PIRNN Predictions) -->
    <g transform="translate(23.281562 16.318125) scale(0.12 -0.12)">
     <defs>
      <path id="DejaVuSans-2d" d="M 313 2009 
L 1997 2009 
L 1997 1497 
L 313 1497 
L 313 2009 
z
" transform="scale(0.015625)"/>
      <path id="DejaVuSans-75" d="M 544 1381 
L 544 3500 
L 1119 3500 
L 1119 1403 
Q 1119 906 1312 657 
Q 1506 409 1894 409 
Q 2359 409 2629 706 
Q 2900 1003 2900 1516 
L 2900 3500 
L 3475 3500 
L 3475 0 
L 2900 0 
L 2900 538 
Q 2691 219 2414 64 
Q 2138 -91 1772 -91 
Q 1169 -91 856 284 
Q 544 659 544 1381 
z
M 1991 3584 
L 1991 3584 
z
" transform="scale(0.015625)"/>
      <path id="DejaVuSans-76" d="M 191 3500 
L 800 3500 
L 1894 563 
L 2988 3500 
L 3597 3500 
L 2284 0 
L 1503 0 
L 191 3500 
z
" transform="scale(0.015625)"/>
      <path id="DejaVuSans-4f" d="M 2522 4238 
Q 1834 4238 1429 3725 
Q 1025 3213 1025 2328 
Q 1025 1447 1429 934 
Q 1834 422 2522 422 
Q 3209 422 3611 934 
Q 4013 1447 4013 2328 
Q 4013 3213 3611 3725 
Q 3209 4238 2522 4238 
z
M 2522 4750 
Q 3503 4750 4090 4092 
Q 4678 3434 4678 2328 
Q 4678 1225 4090 567 
Q 3503 -91 2522 -91 
Q 1538 -91 948 565 
Q 359 1222 359 2328 
Q 359 3434 948 4092 
Q 1538 4750 2522 4750 
z
" transform="scale(0.015625)"/>
      <path id="DejaVuSans-56" d="M 1831 0 
L 50 4666 
L 709 4666 
L 2188 738 
L 3669 4666 
L 4325 4666 
L 2547 0 
L 1831 0 
z
" transform="scale(0.015625)"/>
      <path id="DejaVuSans-2b" d="M 2944 4013 
L 2944 2272 
L 4684 2272 
L 4684 1741 
L 2944 1741 
L 2944 0 
L 2419 0 
L 2419 1741 
L 678 1741 
L 678 2272 
L 2419 2272 
L 2419 4013 
L 2944 4013 
z
" transform="scale(0.015625)"/>
      <path id="DejaVuSans-50" d="M 1259 4147 
L 1259 2394 
L 2053 2394 
Q 2494 2394 2734 2622 
Q 2975 2850 2975 3272 
Q 2975 3691 2734 3919 
Q 2494 4147 2053 4147 
L 1259 4147 
z
M 628 4666 
L 2053 4666 
Q 2838 4666 3239 4311 
Q 3641 3956 3641 3272 
Q 3641 2581 3239 2228 
Q 2838 1875 2053 1875 
L 1259 1875 
L 1259 0 
L 628 0 
L 628 4666 
z
" transform="scale(0.015625)"/>
      <path id="DejaVuSans-45" d="M 628 4666 
L 3578 4666 
L 3578 4134 
L 1259 4134 
L 1259 2753 
L 3481 2753 
L 3481 2222 
L 1259 2222 
L 1259 531 
L 3634 531 
L 3634 0 
L 628 0 
L 628 4666 
z
" transform="scale(0.015625)"/>
      <path id="DejaVuSans-53" d="M 3425 4513 
L 3425 3897 
Q 3066 4069 2747 4153 
Q 2428 4238 2131 4238 
Q 1616 4238 1336 4038 
Q 1056 3838 1056 3469 
Q 1056 3159 1242 3001 
Q 1428 2844 1947 2747 
L 2328 2669 
Q 3034 2534 3370 2195 
Q 3706 1856 3706 1288 
Q 3706 609 3251 259 
Q 2797 -91 1919 -91 
Q 1588 -91 1214 -16 
Q 841 59 441 206 
L 441 856 
Q 825 641 1194 531 
Q 1563 422 1919 422 
Q 2459 422 2753 634 
Q 3047 847 3047 1241 
Q 3047 1584 2836 1778 
Q 2625 1972 2144 2069 
L 1759 2144 
Q 1053 2284 737 2584 
Q 422 2884 422 3419 
Q 422 4038 858 4394 
Q 1294 4750 2059 4750 
Q 2388 4750 2728 4690 
Q 3069 4631 3425 4513 
z
" transform="scale(0.015625)"/>
      <path id="DejaVuSans-49" d="M 628 4666 
L 1259 4666 
L 1259 0 
L 628 0 
L 628 4666 
z
" transform="scale(0.015625)"/>
      <path id="DejaVuSans-52" d="M 2841 2188 
Q 3044 2119 3236 1894 
Q 3428 1669 3622 1275 
L 4263 0 
L 3584 0 
L 2988 1197 
Q 2756 1666 2539 1819 
Q 2322 1972 1947 1972 
L 1259 1972 
L 1259 0 
L 628 0 
L 628 4666 
L 2053 4666 
Q 2853 4666 3247 4331 
Q 3641 3997 3641 3322 
Q 3641 2881 3436 2590 
Q 3231 2300 2841 2188 
z
M 1259 4147 
L 1259 2491 
L 2053 2491 
Q 2509 2491 2742 2702 
Q 2975 2913 2975 3322 
Q 2975 3731 2742 3939 
Q 2509 4147 2053 4147 
L 1259 4147 
z
" transform="scale(0.015625)"/>
      <path id="DejaVuSans-4e" d="M 628 4666 
L 1478 4666 
L 3547 763 
L 3547 4666 
L 4159 4666 
L 4159 0 
L 3309 0 
L 1241 3903 
L 1241 0 
L 628 0 
L 628 4666 
z
" transform="scale(0.015625)"/>
     </defs>
     <use xlink:href="#DejaVuSans-54"/>
     <use xlink:href="#DejaVuSans-69" transform="translate(57.958984 0)"/>
     <use xlink:href="#DejaVuSans-64" transform="translate(85.742188 0)"/>
     <use xlink:href="#DejaVuSans-61" transform="translate(149.21875 0)"/>
     <use xlink:href="#DejaVuSans-6c" transform="translate(210.498047 0)"/>
     <use xlink:href="#DejaVuSans-20" transform="translate(238.28125 0)"/>
     <use xlink:href="#DejaVuSans-44" transform="translate(270.068359 0)"/>
     <use xlink:href="#DejaVuSans-65" transform="translate(347.070312 0)"/>
     <use xlink:href="#DejaVuSans-66" transform="translate(408.59375 0)"/>
     <use xlink:href="#DejaVuSans-6f" transform="translate(443.798828 0)"/>
     <use xlink:href="#DejaVuSans-72" transform="translate(504.980469 0)"/>
     <use xlink:href="#DejaVuSans-6d" transform="translate(544.34375 0)"/>
     <use xlink:href="#DejaVuSans-61" transform="translate(641.755859 0)"/>
     <use xlink:href="#DejaVuSans-62" transform="translate(703.035156 0)"/>
     <use xlink:href="#DejaVuSans-69" transform="translate(766.511719 0)"/>
     <use xlink:href="#DejaVuSans-6c" transform="translate(794.294922 0)"/>
     <use xlink:href="#DejaVuSans-69" transform="translate(822.078125 0)"/>
     <use xlink:href="#DejaVuSans-74" transform="translate(849.861328 0)"/>
     <use xlink:href="#DejaVuSans-79" transform="translate(889.070312 0)"/>
     <use xlink:href="#DejaVuSans-2d" transform="translate(946.5 0)"/>
     <use xlink:href="#DejaVuSans-43" transform="translate(982.583984 0)"/>
     <use xlink:href="#DejaVuSans-6f" transform="translate(1052.408203 0)"/>
     <use xlink:href="#DejaVuSans-6d" transform="translate(1113.589844 0)"/>
     <use xlink:href="#DejaVuSans-70" transform="translate(1211.001953 0)"/>
     <use xlink:href="#DejaVuSans-61" transform="translate(1274.478516 0)"/>
     <use xlink:href="#DejaVuSans-63" transform="translate(1335.757812 0)"/>
     <use xlink:href="#DejaVuSans-74" transform="translate(1390.738281 0)"/>
     <use xlink:href="#DejaVuSans-6e" transform="translate(1429.947266 0)"/>
     <use xlink:href="#DejaVuSans-65" transform="translate(1493.326172 0)"/>
     <use xlink:href="#DejaVuSans-73" transform="translate(1554.849609 0)"/>
     <use xlink:href="#DejaVuSans-73" transform="translate(1606.949219 0)"/>
     <use xlink:href="#DejaVuSans-20" transform="translate(1659.048828 0)"/>
     <use xlink:href="#DejaVuSans-63" transform="translate(1690.835938 0)"/>
     <use xlink:href="#DejaVuSans-75" transform="translate(1745.816406 0)"/>
     <use xlink:href="#DejaVuSans-72" transform="translate(1809.195312 0)"/>
     <use xlink:href="#DejaVuSans-76" transform="translate(1850.308594 0)"/>
     <use xlink:href="#DejaVuSans-65" transform="translate(1909.488281 0)"/>
     <use xlink:href="#DejaVuSans-20" transform="translate(1971.011719 0)"/>
     <use xlink:href="#DejaVuSans-28" transform="translate(2002.798828 0)"/>
     <use xlink:href="#DejaVuSans-54" transform="translate(2041.8125 0)"/>
     <use xlink:href="#DejaVuSans-4f" transform="translate(2102.896484 0)"/>
     <use xlink:href="#DejaVuSans-56" transform="translate(2179.857422 0)"/>
     <use xlink:href="#DejaVuSans-20" transform="translate(2248.265625 0)"/>
     <use xlink:href="#DejaVuSans-2b" transform="translate(2280.052734 0)"/>
     <use xlink:href="#DejaVuSans-20" transform="translate(2363.841797 0)"/>
     <use xlink:href="#DejaVuSans-50" transform="translate(2395.628906 0)"/>
     <use xlink:href="#DejaVuSans-50" transform="translate(2455.931641 0)"/>
     <use xlink:href="#DejaVuSans-45" transform="translate(2516.234375 0)"/>
     <use xlink:href="#DejaVuSans-4f" transform="translate(2579.417969 0)"/>
     <use xlink:href="#DejaVuSans-53" transform="translate(2658.128906 0)"/>
     <use xlink:href="#DejaVuSans-29" transform="translate(2721.605469 0)"/>
     <use xlink:href="#DejaVuSans-20" transform="translate(2760.619141 0)"/>
     <use xlink:href="#DejaVuSans-76" transform="translate(2792.40625 0)"/>
     <use xlink:href="#DejaVuSans-73" transform="translate(2851.585938 0)"/>
     <use xlink:href="#DejaVuSans-20" transform="translate(2903.685547 0)"/>
     <use xlink:href="#DejaVuSans-28" transform="translate(2935.472656 0)"/>
     <use xlink:href="#DejaVuSans-50" transform="translate(2974.486328 0)"/>
     <use xlink:href="#DejaVuSans-49" transform="translate(3034.789062 0)"/>
     <use xlink:href="#DejaVuSans-52" transform="translate(3064.28125 0)"/>
     <use xlink:href="#DejaVuSans-4e" transform="translate(3133.763672 0)"/>
     <use xlink:href="#DejaVuSans-4e" transform="translate(3208.568359 0)"/>
     <use xlink:href="#DejaVuSans-20" transform="translate(3283.373047 0)"/>
     <use xlink:href="#DejaVuSans-50" transform="translate(3315.160156 0)"/>
     <use xlink:href="#DejaVuSans-72" transform="translate(3373.712891 0)"/>
     <use xlink:href="#DejaVuSans-65" transform="translate(3412.576172 0)"/>
     <use xlink:href="#DejaVuSans-64" transform="translate(3474.099609 0)"/>
     <use xlink:href="#DejaVuSans-69" transform="translate(3537.576172 0)"/>
     <use xlink:href="#DejaVuSans-63" transform="translate(3565.359375 0)"/>
     <use xlink:href="#DejaVuSans-74" transform="translate(3620.339844 0)"/>
     <use xlink:href="#DejaVuSans-69" transform="translate(3659.548828 0)"/>
     <use xlink:href="#DejaVuSans-6f" transform="translate(3687.332031 0)"/>
     <use xlink:href="#DejaVuSans-6e" transform="translate(3748.513672 0)"/>
     <use xlink:href="#DejaVuSans-73" transform="translate(3811.892578 0)"/>
     <use xlink:href="#DejaVuSans-29" transform="translate(3863.992188 0)"/>
    </g>
   </g>
  </g>
  <g id="legend_1">
   <g id="patch_7">
    <path d="M 147.185258 548.036516 
L 353.339742 548.036516 
Q 355.005742 548.036516 355.005742 546.370516 
L 355.005742 486.069125 
Q 355.005742 484.403125 353.339742 484.403125 
L 147.185258 484.403125 
Q 145.519258 484.403125 145.519258 486.069125 
L 145.519258 546.370516 
Q 145.519258 548.036516 147.185258 548.036516 
z
" style="fill: #ffffff; opacity: 0.8; stroke: #cccccc; stroke-linejoin: miter"/>
   </g>
   <g id="line2d_35">
    <path d="M 148.851258 491.149123 
L 157.181258 491.149123 
L 165.511258 491.149123 
" style="fill: none; stroke: #440154; stroke-opacity: 0.4; stroke-width: 1.5; stroke-linecap: square"/>
   </g>
   <g id="text_16">
    <!-- TOV + PPEOS -->
    <g transform="translate(172.175258 494.064623) scale(0.0833 -0.0833)">
     <use xlink:href="#DejaVuSans-54"/>
     <use xlink:href="#DejaVuSans-4f" transform="translate(61.083984 0)"/>
     <use xlink:href="#DejaVuSans-56" transform="translate(138.044922 0)"/>
     <use xlink:href="#DejaVuSans-20" transform="translate(206.453125 0)"/>
     <use xlink:href="#DejaVuSans-2b" transform="translate(238.240234 0)"/>
     <use xlink:href="#DejaVuSans-20" transform="translate(322.029297 0)"/>
     <use xlink:href="#DejaVuSans-50" transform="translate(353.816406 0)"/>
     <use xlink:href="#DejaVuSans-50" transform="translate(414.119141 0)"/>
     <use xlink:href="#DejaVuSans-45" transform="translate(474.421875 0)"/>
     <use xlink:href="#DejaVuSans-4f" transform="translate(537.605469 0)"/>
     <use xlink:href="#DejaVuSans-53" transform="translate(616.316406 0)"/>
    </g>
   </g>
   <g id="line2d_36">
    <path d="M 148.851258 503.376002 
L 157.181258 503.376002 
L 165.511258 503.376002 
" style="fill: none; stroke-dasharray: 5.55,2.4; stroke-dashoffset: 0; stroke: #440154; stroke-width: 1.5"/>
   </g>
   <g id="text_17">
    <!-- PIRNN Prediction -->
    <g transform="translate(172.175258 506.291502) scale(0.0833 -0.0833)">
     <use xlink:href="#DejaVuSans-50"/>
     <use xlink:href="#DejaVuSans-49" transform="translate(60.302734 0)"/>
     <use xlink:href="#DejaVuSans-52" transform="translate(89.794922 0)"/>
     <use xlink:href="#DejaVuSans-4e" transform="translate(159.277344 0)"/>
     <use xlink:href="#DejaVuSans-4e" transform="translate(234.082031 0)"/>
     <use xlink:href="#DejaVuSans-20" transform="translate(308.886719 0)"/>
     <use xlink:href="#DejaVuSans-50" transform="translate(340.673828 0)"/>
     <use xlink:href="#DejaVuSans-72" transform="translate(399.226562 0)"/>
     <use xlink:href="#DejaVuSans-65" transform="translate(438.089844 0)"/>
     <use xlink:href="#DejaVuSans-64" transform="translate(499.613281 0)"/>
     <use xlink:href="#DejaVuSans-69" transform="translate(563.089844 0)"/>
     <use xlink:href="#DejaVuSans-63" transform="translate(590.873047 0)"/>
     <use xlink:href="#DejaVuSans-74" transform="translate(645.853516 0)"/>
     <use xlink:href="#DejaVuSans-69" transform="translate(685.0625 0)"/>
     <use xlink:href="#DejaVuSans-6f" transform="translate(712.845703 0)"/>
     <use xlink:href="#DejaVuSans-6e" transform="translate(774.027344 0)"/>
    </g>
   </g>
   <g id="line2d_37">
    <path d="M 148.851258 515.60288 
L 157.181258 515.60288 
L 165.511258 515.60288 
" style="fill: none; stroke: #3b528b; stroke-opacity: 0.4; stroke-width: 1.5; stroke-linecap: square"/>
   </g>
   <g id="text_18">
    <!-- TOV + PPEOS -->
    <g transform="translate(172.175258 518.51838) scale(0.0833 -0.0833)">
     <use xlink:href="#DejaVuSans-54"/>
     <use xlink:href="#DejaVuSans-4f" transform="translate(61.083984 0)"/>
     <use xlink:href="#DejaVuSans-56" transform="translate(138.044922 0)"/>
     <use xlink:href="#DejaVuSans-20" transform="translate(206.453125 0)"/>
     <use xlink:href="#DejaVuSans-2b" transform="translate(238.240234 0)"/>
     <use xlink:href="#DejaVuSans-20" transform="translate(322.029297 0)"/>
     <use xlink:href="#DejaVuSans-50" transform="translate(353.816406 0)"/>
     <use xlink:href="#DejaVuSans-50" transform="translate(414.119141 0)"/>
     <use xlink:href="#DejaVuSans-45" transform="translate(474.421875 0)"/>
     <use xlink:href="#DejaVuSans-4f" transform="translate(537.605469 0)"/>
     <use xlink:href="#DejaVuSans-53" transform="translate(616.316406 0)"/>
    </g>
   </g>
   <g id="line2d_38">
    <path d="M 148.851258 527.829758 
L 157.181258 527.829758 
L 165.511258 527.829758 
" style="fill: none; stroke-dasharray: 5.55,2.4; stroke-dashoffset: 0; stroke: #3b528b; stroke-width: 1.5"/>
   </g>
   <g id="text_19">
    <!-- PIRNN Prediction -->
    <g transform="translate(172.175258 530.745258) scale(0.0833 -0.0833)">
     <use xlink:href="#DejaVuSans-50"/>
     <use xlink:href="#DejaVuSans-49" transform="translate(60.302734 0)"/>
     <use xlink:href="#DejaVuSans-52" transform="translate(89.794922 0)"/>
     <use xlink:href="#DejaVuSans-4e" transform="translate(159.277344 0)"/>
     <use xlink:href="#DejaVuSans-4e" transform="translate(234.082031 0)"/>
     <use xlink:href="#DejaVuSans-20" transform="translate(308.886719 0)"/>
     <use xlink:href="#DejaVuSans-50" transform="translate(340.673828 0)"/>
     <use xlink:href="#DejaVuSans-72" transform="translate(399.226562 0)"/>
     <use xlink:href="#DejaVuSans-65" transform="translate(438.089844 0)"/>
     <use xlink:href="#DejaVuSans-64" transform="translate(499.613281 0)"/>
     <use xlink:href="#DejaVuSans-69" transform="translate(563.089844 0)"/>
     <use xlink:href="#DejaVuSans-63" transform="translate(590.873047 0)"/>
     <use xlink:href="#DejaVuSans-74" transform="translate(645.853516 0)"/>
     <use xlink:href="#DejaVuSans-69" transform="translate(685.0625 0)"/>
     <use xlink:href="#DejaVuSans-6f" transform="translate(712.845703 0)"/>
     <use xlink:href="#DejaVuSans-6e" transform="translate(774.027344 0)"/>
    </g>
   </g>
   <g id="line2d_39">
    <path d="M 148.851258 540.056636 
L 157.181258 540.056636 
L 165.511258 540.056636 
" style="fill: none; stroke: #21918c; stroke-opacity: 0.4; stroke-width: 1.5; stroke-linecap: square"/>
   </g>
   <g id="text_20">
    <!-- TOV + PPEOS -->
    <g transform="translate(172.175258 542.972136) scale(0.0833 -0.0833)">
     <use xlink:href="#DejaVuSans-54"/>
     <use xlink:href="#DejaVuSans-4f" transform="translate(61.083984 0)"/>
     <use xlink:href="#DejaVuSans-56" transform="translate(138.044922 0)"/>
     <use xlink:href="#DejaVuSans-20" transform="translate(206.453125 0)"/>
     <use xlink:href="#DejaVuSans-2b" transform="translate(238.240234 0)"/>
     <use xlink:href="#DejaVuSans-20" transform="translate(322.029297 0)"/>
     <use xlink:href="#DejaVuSans-50" transform="translate(353.816406 0)"/>
     <use xlink:href="#DejaVuSans-50" transform="translate(414.119141 0)"/>
     <use xlink:href="#DejaVuSans-45" transform="translate(474.421875 0)"/>
     <use xlink:href="#DejaVuSans-4f" transform="translate(537.605469 0)"/>
     <use xlink:href="#DejaVuSans-53" transform="translate(616.316406 0)"/>
    </g>
   </g>
   <g id="line2d_40">
    <path d="M 258.5925 491.149123 
L 266.9225 491.149123 
L 275.2525 491.149123 
" style="fill: none; stroke-dasharray: 5.55,2.4; stroke-dashoffset: 0; stroke: #21918c; stroke-width: 1.5"/>
   </g>
   <g id="text_21">
    <!-- PIRNN Prediction -->
    <g transform="translate(281.9165 494.064623) scale(0.0833 -0.0833)">
     <use xlink:href="#DejaVuSans-50"/>
     <use xlink:href="#DejaVuSans-49" transform="translate(60.302734 0)"/>
     <use xlink:href="#DejaVuSans-52" transform="translate(89.794922 0)"/>
     <use xlink:href="#DejaVuSans-4e" transform="translate(159.277344 0)"/>
     <use xlink:href="#DejaVuSans-4e" transform="translate(234.082031 0)"/>
     <use xlink:href="#DejaVuSans-20" transform="translate(308.886719 0)"/>
     <use xlink:href="#DejaVuSans-50" transform="translate(340.673828 0)"/>
     <use xlink:href="#DejaVuSans-72" transform="translate(399.226562 0)"/>
     <use xlink:href="#DejaVuSans-65" transform="translate(438.089844 0)"/>
     <use xlink:href="#DejaVuSans-64" transform="translate(499.613281 0)"/>
     <use xlink:href="#DejaVuSans-69" transform="translate(563.089844 0)"/>
     <use xlink:href="#DejaVuSans-63" transform="translate(590.873047 0)"/>
     <use xlink:href="#DejaVuSans-74" transform="translate(645.853516 0)"/>
     <use xlink:href="#DejaVuSans-69" transform="translate(685.0625 0)"/>
     <use xlink:href="#DejaVuSans-6f" transform="translate(712.845703 0)"/>
     <use xlink:href="#DejaVuSans-6e" transform="translate(774.027344 0)"/>
    </g>
   </g>
   <g id="line2d_41">
    <path d="M 258.5925 503.376002 
L 266.9225 503.376002 
L 275.2525 503.376002 
" style="fill: none; stroke: #5ec962; stroke-opacity: 0.4; stroke-width: 1.5; stroke-linecap: square"/>
   </g>
   <g id="text_22">
    <!-- TOV + PPEOS -->
    <g transform="translate(281.9165 506.291502) scale(0.0833 -0.0833)">
     <use xlink:href="#DejaVuSans-54"/>
     <use xlink:href="#DejaVuSans-4f" transform="translate(61.083984 0)"/>
     <use xlink:href="#DejaVuSans-56" transform="translate(138.044922 0)"/>
     <use xlink:href="#DejaVuSans-20" transform="translate(206.453125 0)"/>
     <use xlink:href="#DejaVuSans-2b" transform="translate(238.240234 0)"/>
     <use xlink:href="#DejaVuSans-20" transform="translate(322.029297 0)"/>
     <use xlink:href="#DejaVuSans-50" transform="translate(353.816406 0)"/>
     <use xlink:href="#DejaVuSans-50" transform="translate(414.119141 0)"/>
     <use xlink:href="#DejaVuSans-45" transform="translate(474.421875 0)"/>
     <use xlink:href="#DejaVuSans-4f" transform="translate(537.605469 0)"/>
     <use xlink:href="#DejaVuSans-53" transform="translate(616.316406 0)"/>
    </g>
   </g>
   <g id="line2d_42">
    <path d="M 258.5925 515.60288 
L 266.9225 515.60288 
L 275.2525 515.60288 
" style="fill: none; stroke-dasharray: 5.55,2.4; stroke-dashoffset: 0; stroke: #5ec962; stroke-width: 1.5"/>
   </g>
   <g id="text_23">
    <!-- PIRNN Prediction -->
    <g transform="translate(281.9165 518.51838) scale(0.0833 -0.0833)">
     <use xlink:href="#DejaVuSans-50"/>
     <use xlink:href="#DejaVuSans-49" transform="translate(60.302734 0)"/>
     <use xlink:href="#DejaVuSans-52" transform="translate(89.794922 0)"/>
     <use xlink:href="#DejaVuSans-4e" transform="translate(159.277344 0)"/>
     <use xlink:href="#DejaVuSans-4e" transform="translate(234.082031 0)"/>
     <use xlink:href="#DejaVuSans-20" transform="translate(308.886719 0)"/>
     <use xlink:href="#DejaVuSans-50" transform="translate(340.673828 0)"/>
     <use xlink:href="#DejaVuSans-72" transform="translate(399.226562 0)"/>
     <use xlink:href="#DejaVuSans-65" transform="translate(438.089844 0)"/>
     <use xlink:href="#DejaVuSans-64" transform="translate(499.613281 0)"/>
     <use xlink:href="#DejaVuSans-69" transform="translate(563.089844 0)"/>
     <use xlink:href="#DejaVuSans-63" transform="translate(590.873047 0)"/>
     <use xlink:href="#DejaVuSans-74" transform="translate(645.853516 0)"/>
     <use xlink:href="#DejaVuSans-69" transform="translate(685.0625 0)"/>
     <use xlink:href="#DejaVuSans-6f" transform="translate(712.845703 0)"/>
     <use xlink:href="#DejaVuSans-6e" transform="translate(774.027344 0)"/>
    </g>
   </g>
   <g id="line2d_43">
    <path d="M 258.5925 527.829758 
L 266.9225 527.829758 
L 275.2525 527.829758 
" style="fill: none; stroke: #fde725; stroke-opacity: 0.4; stroke-width: 1.5; stroke-linecap: square"/>
   </g>
   <g id="text_24">
    <!-- TOV + PPEOS -->
    <g transform="translate(281.9165 530.745258) scale(0.0833 -0.0833)">
     <use xlink:href="#DejaVuSans-54"/>
     <use xlink:href="#DejaVuSans-4f" transform="translate(61.083984 0)"/>
     <use xlink:href="#DejaVuSans-56" transform="translate(138.044922 0)"/>
     <use xlink:href="#DejaVuSans-20" transform="translate(206.453125 0)"/>
     <use xlink:href="#DejaVuSans-2b" transform="translate(238.240234 0)"/>
     <use xlink:href="#DejaVuSans-20" transform="translate(322.029297 0)"/>
     <use xlink:href="#DejaVuSans-50" transform="translate(353.816406 0)"/>
     <use xlink:href="#DejaVuSans-50" transform="translate(414.119141 0)"/>
     <use xlink:href="#DejaVuSans-45" transform="translate(474.421875 0)"/>
     <use xlink:href="#DejaVuSans-4f" transform="translate(537.605469 0)"/>
     <use xlink:href="#DejaVuSans-53" transform="translate(616.316406 0)"/>
    </g>
   </g>
   <g id="line2d_44">
    <path d="M 258.5925 540.056636 
L 266.9225 540.056636 
L 275.2525 540.056636 
" style="fill: none; stroke-dasharray: 5.55,2.4; stroke-dashoffset: 0; stroke: #fde725; stroke-width: 1.5"/>
   </g>
   <g id="text_25">
    <!-- PIRNN Prediction -->
    <g transform="translate(281.9165 542.972136) scale(0.0833 -0.0833)">
     <use xlink:href="#DejaVuSans-50"/>
     <use xlink:href="#DejaVuSans-49" transform="translate(60.302734 0)"/>
     <use xlink:href="#DejaVuSans-52" transform="translate(89.794922 0)"/>
     <use xlink:href="#DejaVuSans-4e" transform="translate(159.277344 0)"/>
     <use xlink:href="#DejaVuSans-4e" transform="translate(234.082031 0)"/>
     <use xlink:href="#DejaVuSans-20" transform="translate(308.886719 0)"/>
     <use xlink:href="#DejaVuSans-50" transform="translate(340.673828 0)"/>
     <use xlink:href="#DejaVuSans-72" transform="translate(399.226562 0)"/>
     <use xlink:href="#DejaVuSans-65" transform="translate(438.089844 0)"/>
     <use xlink:href="#DejaVuSans-64" transform="translate(499.613281 0)"/>
     <use xlink:href="#DejaVuSans-69" transform="translate(563.089844 0)"/>
     <use xlink:href="#DejaVuSans-63" transform="translate(590.873047 0)"/>
     <use xlink:href="#DejaVuSans-74" transform="translate(645.853516 0)"/>
     <use xlink:href="#DejaVuSans-69" transform="translate(685.0625 0)"/>
     <use xlink:href="#DejaVuSans-6f" transform="translate(712.845703 0)"/>
     <use xlink:href="#DejaVuSans-6e" transform="translate(774.027344 0)"/>
    </g>
   </g>
  </g>
 </g>
 <defs>
  <clipPath id="p4bca5d5e68">
   <rect x="34.2625" y="22.318125" width="446.4" height="358.56"/>
  </clipPath>
 </defs>
</svg>
